<?xml version="1.0" encoding="UTF-8"?>
<svg version="1.1" xmlns="http://www.w3.org/2000/svg" width="1024" height="1024">
<path d="M0 0 C0.66 0 1.32 0 2 0 C2 0.66 2 1.32 2 2 C3.19496094 1.98259766 3.19496094 1.98259766 4.4140625 1.96484375 C14.93848858 1.87521968 14.93848858 1.87521968 20 3 C20 3.66 20 4.32 20 5 C23.3 5.33 26.6 5.66 30 6 C30 6.66 30 7.32 30 8 C32.31 8.33 34.62 8.66 37 9 C37 9.66 37 10.32 37 11 C39.475 11.495 39.475 11.495 42 12 C42 12.66 42 13.32 42 14 C43.98 14.33 45.96 14.66 48 15 C48.33 15.99 48.66 16.98 49 18 C51.01508358 18.73323796 51.01508358 18.73323796 53 19 C53 19.66 53 20.32 53 21 C53.99 21.33 54.98 21.66 56 22 C56 22.66 56 23.32 56 24 C56.99 24.33 57.98 24.66 59 25 C59 25.66 59 26.32 59 27 C59.99 27.33 60.98 27.66 62 28 C62 28.66 62 29.32 62 30 C62.99 30.33 63.98 30.66 65 31 C65 31.66 65 32.32 65 33 C65.99 33.33 66.98 33.66 68 34 C68 34.66 68 35.32 68 36 C68.66 36 69.32 36 70 36 C70.33 36.99 70.66 37.98 71 39 C71.99 39.66 72.98 40.32 74 41 C74 41.99 74 42.98 74 44 C74.66 44 75.32 44 76 44 C77.25664978 46.90600261 78 48.79604584 78 52 C78.66 52 79.32 52 80 52 C80.33 52.99 80.66 53.98 81 55 C81.66 55.33 82.32 55.66 83 56 C83.59355614 58.64860427 83.74209269 61.29197322 84 64 C84.66 64 85.32 64 86 64 C86.33 65.65 86.66 67.3 87 69 C87.66 69 88.32 69 89 69 C89.33 71.64 89.66 74.28 90 77 C90.66 77 91.32 77 92 77 C92.33 79.31 92.66 81.62 93 84 C93.66 84 94.32 84 95 84 C95.33 86.97 95.66 89.94 96 93 C96.66 93 97.32 93 98 93 C98.33 95.97 98.66 98.94 99 102 C99.66 102 100.32 102 101 102 C102.19088986 107.38027025 103.2919519 112.45291384 103 118 C103.66 118 104.32 118 105 118 C105.84681133 123.08086796 106.09038099 127.84828377 106 133 C106.66 133 107.32 133 108 133 C108.33 137.62 108.66 142.24 109 147 C109.66 147 110.32 147 111 147 C111.90041311 155.02332397 112.11547323 162.92970447 112 171 C112.66 171 113.32 171 114 171 C114.95375833 182.98498364 115.15581211 194.90759128 115.13037109 206.92651367 C115.12501413 209.92957622 115.13034855 212.93248885 115.13671875 215.93554688 C115.14022961 227.32723604 114.83750162 238.63840338 114 250 C113.34 250 112.68 250 112 250 C112.01160156 250.9178125 112.02320313 251.835625 112.03515625 252.78125 C112.08301493 259.29003027 112.02900697 265.56870645 111 272 C110.34 272 109.68 272 109 272 C109.020625 273.175625 109.04125 274.35125 109.0625 275.5625 C109.06947261 279.47413467 108.64250343 283.14497944 108 287 C107.34 287 106.68 287 106 287 C106.020625 288.216875 106.04125 289.43375 106.0625 290.6875 C106.06824116 293.91977322 105.78766315 296.84934741 105 300 C104.34 300 103.68 300 103 300 C102.93941406 300.74765625 102.87882813 301.4953125 102.81640625 302.265625 C102.73261719 303.25046875 102.64882813 304.2353125 102.5625 305.25 C102.48128906 306.22453125 102.40007813 307.1990625 102.31640625 308.203125 C102.04925416 310.56461753 101.64628032 312.71901065 101 315 C100.34 315 99.68 315 99 315 C98.67 317.64 98.34 320.28 98 323 C97.34 323 96.68 323 96 323 C95.67 325.64 95.34 328.28 95 331 C94.34 331 93.68 331 93 331 C92.67 332.98 92.34 334.96 92 337 C91.34 337 90.68 337 90 337 C89.87625 338.299375 89.7525 339.59875 89.625 340.9375 C89.4140625 343.15234375 89.4140625 343.15234375 89 345 C88.01 345.495 88.01 345.495 87 346 C86.67 346.99 86.34 347.98 86 349 C85.34 349 84.68 349 84 349 C83.87625 349.969375 83.7525 350.93875 83.625 351.9375 C83.41875 352.948125 83.2125 353.95875 83 355 C82.01 355.495 82.01 355.495 81 356 C80.67 356.99 80.34 357.98 80 359 C79.34 359 78.68 359 78 359 C77.34 360.98 76.68 362.96 76 365 C75.34 365 74.68 365 74 365 C73.67 365.99 73.34 366.98 73 368 C72.34 368 71.68 368 71 368 C70.67 368.99 70.34 369.98 70 371 C69.34 371 68.68 371 68 371 C67.67 371.99 67.34 372.98 67 374 C65.34211215 375.34423339 63.67423683 376.67618483 62 378 C61.34 378.886875 60.68 379.77375 60 380.6875 C57.69035894 383.35802248 56.45100574 383.71241619 53 384 C52.67 384.99 52.34 385.98 52 387 C51.01 387 50.02 387 49 387 C48.67 387.99 48.34 388.98 48 390 C47.01 390 46.02 390 45 390 C45 390.66 45 391.32 45 392 C43.02 392.33 41.04 392.66 39 393 C39 393.66 39 394.32 39 395 C37.02 395.33 35.04 395.66 33 396 C33 396.66 33 397.32 33 398 C31.58461283 398.33872513 30.16762037 398.67074624 28.75 399 C27.96109375 399.185625 27.1721875 399.37125 26.359375 399.5625 C24 400 24 400 20 400 C20 400.66 20 401.32 20 402 C15.23692563 402.95261487 10.8333472 403.08333357 6 403 C6 403.66 6 404.32 6 405 C-2.06379994 405.88954446 -10.02104269 406.14030372 -18.12956238 406.12025452 C-20.04863756 406.12153615 -20.04863756 406.12153615 -22.00648195 406.12284368 C-25.5275301 406.12506263 -29.04854741 406.12110329 -32.56959164 406.11606562 C-36.37788646 406.11172366 -40.18617972 406.11321019 -43.99447632 406.1139679 C-50.58264257 406.11449077 -57.17079888 406.11136876 -63.75896263 406.10573006 C-73.28419417 406.0975829 -82.80942092 406.09499654 -92.33465556 406.09374207 C-107.79089614 406.09155659 -123.24713143 406.08491021 -138.70336914 406.07543945 C-153.71248346 406.06625227 -168.72159633 406.05917783 -183.73071289 406.05493164 C-184.65677856 406.05466892 -185.58284422 406.05440619 -186.53697249 406.05413551 C-191.18304166 406.05283042 -195.82911084 406.05156672 -200.47518003 406.05032361 C-238.98345724 406.03996671 -277.49172786 406.0220858 -316 406 C-316 415.9 -316 425.8 -316 436 C-247.36 436 -178.72 436 -108 436 C-108 468.01 -108 500.02 -108 533 C-108.66 533 -109.32 533 -110 533 C-109.98259766 533.99580078 -109.98259766 533.99580078 -109.96484375 535.01171875 C-109.87521968 543.78207381 -109.87521968 543.78207381 -111 548 C-111.66 548 -112.32 548 -113 548 C-113.33 550.64 -113.66 553.28 -114 556 C-114.66 556 -115.32 556 -116 556 C-116.33 557.98 -116.66 559.96 -117 562 C-117.66 562 -118.32 562 -119 562 C-119.33 563.98 -119.66 565.96 -120 568 C-120.66 568 -121.32 568 -122 568 C-122.0928125 569.11375 -122.0928125 569.11375 -122.1875 570.25 C-123.24866383 573.84163143 -125.06166338 574.77833085 -128 577 C-129.31165257 579.11660427 -129.31165257 579.11660427 -130 581 C-130.66 581 -131.32 581 -132 581 C-132 581.66 -132 582.32 -132 583 C-132.99 583.33 -133.98 583.66 -135 584 C-136.37482707 585.63260714 -137.70647667 587.30225062 -139 589 C-141.06109359 591.62321003 -141.80588006 591.95813099 -145.1875 592.6875 C-146.115625 592.790625 -147.04375 592.89375 -148 593 C-148 593.66 -148 594.32 -148 595 C-149.65 595.33 -151.3 595.66 -153 596 C-153.33 596.99 -153.66 597.98 -154 599 C-154.99 599 -155.98 599 -157 599 C-157 599.66 -157 600.32 -157 601 C-158.98 601.33 -160.96 601.66 -163 602 C-163.33 602.99 -163.66 603.98 -164 605 C-166.64 605.33 -169.28 605.66 -172 606 C-172 606.66 -172 607.32 -172 608 C-174.31 608.33 -176.62 608.66 -179 609 C-179 609.66 -179 610.32 -179 611 C-181.31 611.33 -183.62 611.66 -186 612 C-186 612.66 -186 613.32 -186 614 C-188.64 614.33 -191.28 614.66 -194 615 C-194 615.66 -194 616.32 -194 617 C-197.3 617.33 -200.6 617.66 -204 618 C-204 618.66 -204 619.32 -204 620 C-207.3 620.33 -210.6 620.66 -214 621 C-214 621.66 -214 622.32 -214 623 C-218.95 623.33 -223.9 623.66 -229 624 C-229 624.66 -229 625.32 -229 626 C-234.38490641 626.91657981 -239.54230189 627.11138159 -245 627 C-245 627.66 -245 628.32 -245 629 C-264.01211555 630.76671212 -282.84490285 631.32002351 -301.92382812 631.26074219 C-305.62621217 631.24936992 -309.32830752 631.25610705 -313.03068161 631.26764679 C-332.11122328 631.31760817 -350.98056876 630.61712009 -370 629 C-370 628.34 -370 627.68 -370 627 C-370.76183594 627.01160156 -371.52367187 627.02320313 -372.30859375 627.03515625 C-378.63840322 627.09047294 -384.72555549 626.8365926 -391 626 C-391 625.34 -391 624.68 -391 624 C-395.95 623.67 -400.9 623.34 -406 623 C-406 622.34 -406 621.68 -406 621 C-409.63 620.67 -413.26 620.34 -417 620 C-417 619.34 -417 618.68 -417 618 C-420.63 617.67 -424.26 617.34 -428 617 C-428 616.34 -428 615.68 -428 615 C-430.64 614.67 -433.28 614.34 -436 614 C-436 613.34 -436 612.68 -436 612 C-438.97 611.67 -441.94 611.34 -445 611 C-445 610.34 -445 609.68 -445 609 C-447.64 608.67 -450.28 608.34 -453 608 C-453 607.34 -453 606.68 -453 606 C-453.94875 605.855625 -454.8975 605.71125 -455.875 605.5625 C-459 605 -459 605 -461 604 C-461 603.34 -461 602.68 -461 602 C-462.98 601.67 -464.96 601.34 -467 601 C-467 600.34 -467 599.68 -467 599 C-468.98 598.67 -470.96 598.34 -473 598 C-473 597.34 -473 596.68 -473 596 C-473.804375 595.87625 -474.60875 595.7525 -475.4375 595.625 C-476.283125 595.41875 -477.12875 595.2125 -478 595 C-478.33 594.34 -478.66 593.68 -479 593 C-479.99 592.67 -480.98 592.34 -482 592 C-482 591.34 -482 590.68 -482 590 C-482.99 589.67 -483.98 589.34 -485 589 C-485 588.34 -485 587.68 -485 587 C-486.32 586.67 -487.64 586.34 -489 586 C-489 585.34 -489 584.68 -489 584 C-489.99 583.67 -490.98 583.34 -492 583 C-492 582.34 -492 581.68 -492 581 C-492.763125 580.731875 -493.52625 580.46375 -494.3125 580.1875 C-496.95915172 579.01804924 -498.29555616 578.30099918 -500 576 C-500.6875 573.3125 -500.6875 573.3125 -501 571 C-501.99 570.67 -502.98 570.34 -504 570 C-504 569.01 -504 568.02 -504 567 C-504.66 567 -505.32 567 -506 567 C-506.33 565.35 -506.66 563.7 -507 562 C-507.66 562 -508.32 562 -509 562 C-509.495 559.03 -509.495 559.03 -510 556 C-510.66 556 -511.32 556 -512 556 C-513.33583899 551.15758367 -514.25328119 547.06562383 -514 542 C-514.66 542 -515.32 542 -516 542 C-516 464.12 -516 386.24 -516 306 C-515.34 306 -514.68 306 -514 306 C-514.02320313 305.443125 -514.04640625 304.88625 -514.0703125 304.3125 C-514.20011024 298.82390985 -513.53328434 294.2706649 -512 289 C-511.34 289 -510.68 289 -510 289 C-509.67 286.36 -509.34 283.72 -509 281 C-508.34 281 -507.68 281 -507 281 C-506.67 279.02 -506.34 277.04 -506 275 C-505.34 275 -504.68 275 -504 275 C-503.67 273.35 -503.34 271.7 -503 270 C-502.34 270 -501.68 270 -501 270 C-500.896875 269.236875 -500.79375 268.47375 -500.6875 267.6875 C-499.95288806 264.81583516 -499.3283935 263.76957906 -497 262 C-496.34 262 -495.68 262 -495 262 C-494.67 260.68 -494.34 259.36 -494 258 C-493.34 258 -492.68 258 -492 258 C-491.67 257.01 -491.34 256.02 -491 255 C-490.34 255 -489.68 255 -489 255 C-488.67 254.01 -488.34 253.02 -488 252 C-487.34 252 -486.68 252 -486 252 C-485.731875 251.21625 -485.46375 250.4325 -485.1875 249.625 C-484 247 -484 247 -481 245 C-480.01 245 -479.02 245 -478 245 C-478 244.34 -478 243.68 -478 243 C-476.11930017 240.3879169 -475.02464205 240.00531495 -471.8125 239.3125 C-470.884375 239.209375 -469.95625 239.10625 -469 239 C-469 238.34 -469 237.68 -469 237 C-467.35 236.67 -465.7 236.34 -464 236 C-464 235.34 -464 234.68 -464 234 C-462.35 233.67 -460.7 233.34 -459 233 C-459 232.34 -459 231.68 -459 231 C-456.36 230.67 -453.72 230.34 -451 230 C-451 229.34 -451 228.68 -451 228 C-447.7 227.67 -444.4 227.34 -441 227 C-441 226.34 -441 225.68 -441 225 C-435.63904667 223.87137825 -430.44693314 223.90311779 -425 224 C-425 223.34 -425 222.68 -425 222 C-423.84761683 221.99576806 -422.69523367 221.99153612 -421.5079298 221.98717594 C-394.07688747 221.88623228 -366.64586708 221.78047345 -339.2148659 221.66888306 C-335.82952337 221.65511551 -332.44418068 221.64138811 -329.05883789 221.62768555 C-328.04800941 221.62359309 -328.04800941 221.62359309 -327.01676015 221.61941796 C-316.14320754 221.57549059 -305.26964514 221.53480662 -294.39607551 221.49534739 C-283.21675657 221.45470544 -272.03745507 221.410449 -260.85816222 221.36312145 C-254.58822929 221.33668991 -248.31829952 221.3118431 -242.04834557 221.29092598 C-236.13293347 221.2711397 -230.21755506 221.24693525 -224.30217361 221.21950912 C-222.14449624 221.21025364 -219.98681154 221.20253877 -217.82912254 221.19658089 C-204.8544445 221.15968762 -191.94991609 220.81823499 -179 220 C-179 219.34 -179 218.68 -179 218 C-175.7 217.67 -172.4 217.34 -169 217 C-169 216.34 -169 215.68 -169 215 C-166.36 214.67 -163.72 214.34 -161 214 C-161 213.34 -161 212.68 -161 212 C-158.69 211.67 -156.38 211.34 -154 211 C-154 210.34 -154 209.68 -154 209 C-152.02 208.67 -150.04 208.34 -148 208 C-148 207.34 -148 206.68 -148 206 C-147.01 205.67 -146.02 205.34 -145 205 C-144.67 204.34 -144.34 203.68 -144 203 C-141.4375 202.375 -141.4375 202.375 -139 202 C-139 201.34 -139 200.68 -139 200 C-138.01 199.67 -137.02 199.34 -136 199 C-135.67 198.34 -135.34 197.68 -135 197 C-134.195625 196.690625 -133.39125 196.38125 -132.5625 196.0625 C-129.70136041 195.15452711 -129.70136041 195.15452711 -128 192 C-127.01 192 -126.02 192 -125 192 C-125 191.34 -125 190.68 -125 190 C-123.36395804 188.62926214 -121.69321939 187.29944744 -120 186 C-117.62112149 183.87600133 -117.0446753 183.13402591 -116 180 C-115.34 180 -114.68 180 -114 180 C-113.67 179.01 -113.34 178.02 -113 177 C-112.34 177 -111.68 177 -111 177 C-110.896875 176.236875 -110.79375 175.47375 -110.6875 174.6875 C-109.95288806 171.81583516 -109.3283935 170.76957906 -107 169 C-106.34 169 -105.68 169 -105 169 C-104.67 167.68 -104.34 166.36 -104 165 C-103.34 165 -102.68 165 -102 165 C-101.87882812 164.36191406 -101.75765625 163.72382813 -101.6328125 163.06640625 C-101.46523438 162.24011719 -101.29765625 161.41382813 -101.125 160.5625 C-100.88136719 159.32693359 -100.88136719 159.32693359 -100.6328125 158.06640625 C-100.42398437 157.38449219 -100.21515625 156.70257813 -100 156 C-99.34 155.67 -98.68 155.34 -98 155 C-97.34444881 152.47266765 -97.34444881 152.47266765 -97 150 C-96.34 150 -95.68 150 -95 150 C-94.67 148.02 -94.34 146.04 -94 144 C-93.34 144 -92.68 144 -92 144 C-91.67 141.69 -91.34 139.38 -91 137 C-90.34 137 -89.68 137 -89 137 C-88.67 133.7 -88.34 130.4 -88 127 C-87.34 127 -86.68 127 -86 127 C-85.67 122.05 -85.34 117.1 -85 112 C-84.34 112 -83.68 112 -83 112 C-82.67 75.7 -82.34 39.4 -82 2 C-54.94 2 -27.88 2 0 2 C0 1.34 0 0.68 0 0 Z M-204 490 C-204 490.66 -204 491.32 -204 492 C-207.3 492.33 -210.6 492.66 -214 493 C-214 493.66 -214 494.32 -214 495 C-215.65 495.33 -217.3 495.66 -219 496 C-219 496.66 -219 497.32 -219 498 C-220.32 498.33 -221.64 498.66 -223 499 C-223 499.66 -223 500.32 -223 501 C-223.99 501.33 -224.98 501.66 -226 502 C-226 502.99 -226 503.98 -226 505 C-226.99 505.33 -227.98 505.66 -229 506 C-229.33 507.65 -229.66 509.3 -230 511 C-230.66 511 -231.32 511 -232 511 C-232.33 514.3 -232.66 517.6 -233 521 C-233.66 521 -234.32 521 -235 521 C-235 523.31 -235 525.62 -235 528 C-234.34 528 -233.68 528 -233 528 C-233.01160156 528.61488281 -233.02320313 529.22976563 -233.03515625 529.86328125 C-233.04417969 530.67152344 -233.05320312 531.47976563 -233.0625 532.3125 C-233.07410156 533.11300781 -233.08570313 533.91351562 -233.09765625 534.73828125 C-233.09657855 537.16861334 -233.09657855 537.16861334 -232 540 C-231.34 540 -230.68 540 -230 540 C-229.896875 540.928125 -229.79375 541.85625 -229.6875 542.8125 C-228.96755671 546.1504189 -228.45546562 546.85146758 -226 549 C-225.67 549.99 -225.34 550.98 -225 552 C-222.70832354 554.9791794 -220.66464055 555.5047783 -217 556 C-217 556.66 -217 557.32 -217 558 C-213.535 558.495 -213.535 558.495 -210 559 C-210 559.66 -210 560.32 -210 561 C-205.95038003 561.96638658 -202.15797593 562.13396116 -198 562.125 C-196.80375 562.12757813 -195.6075 562.13015625 -194.375 562.1328125 C-191.44672307 562.01757938 -188.84213024 561.67823563 -186 561 C-186 560.34 -186 559.68 -186 559 C-184.906875 558.896875 -183.81375 558.79375 -182.6875 558.6875 C-179.10679821 558.29881196 -179.10679821 558.29881196 -177.0625 556.5625 C-175.81256333 555.03927901 -175.81256333 555.03927901 -176 553 C-175.38125 552.855625 -174.7625 552.71125 -174.125 552.5625 C-171.96741678 552.06847775 -171.96741678 552.06847775 -170 551 C-169.34444881 548.47266765 -169.34444881 548.47266765 -169 546 C-168.34 546 -167.68 546 -167 546 C-166.67 544.02 -166.34 542.04 -166 540 C-165.34 540 -164.68 540 -164 540 C-163.03929566 537.11788698 -162.89418117 535.30149956 -162.9375 532.3125 C-162.94652344 531.50425781 -162.95554687 530.69601562 -162.96484375 529.86328125 C-162.97644531 529.24839844 -162.98804688 528.63351562 -163 528 C-162.34 528 -161.68 528 -161 528 C-161 526.35 -161 524.7 -161 523 C-161.66 523 -162.32 523 -163 523 C-162.96744792 521.01432292 -162.93489583 519.02864583 -162.90234375 517.04296875 C-162.91736783 514.79694539 -162.91736783 514.79694539 -164 512 C-164.66 512 -165.32 512 -166 512 C-166.12375 511.030625 -166.2475 510.06125 -166.375 509.0625 C-166.684375 507.5465625 -166.684375 507.5465625 -167 506 C-167.99 505.505 -167.99 505.505 -169 505 C-169.495 503.515 -169.495 503.515 -170 502 C-172.29167646 499.0208206 -174.33535945 498.4952217 -178 498 C-178 497.34 -178 496.68 -178 496 C-179.32 495.67 -180.64 495.34 -182 495 C-182 494.34 -182 493.68 -182 493 C-185.3 492.67 -188.6 492.34 -192 492 C-192 491.34 -192 490.68 -192 490 C-195.96 490 -199.92 490 -204 490 Z " fill="#FED137" transform="translate(819,276)"/>
<path d="M0 0 C1.68279026 -0.00067663 3.36558043 -0.00164961 5.04837036 -0.00289917 C8.54934636 -0.00436012 12.05029657 -0.00227441 15.55126953 0.00244141 C19.98374431 0.00812875 24.41615836 0.00485561 28.84863091 -0.00113106 C32.31670569 -0.00478804 35.78476669 -0.00357468 39.25284195 -0.00100327 C40.88470594 -0.00034764 42.51657128 -0.00111316 44.14843369 -0.00348282 C55.46817122 -0.01631843 66.7118068 0.39903394 78.0078125 1.1328125 C78.0078125 1.7928125 78.0078125 2.4528125 78.0078125 3.1328125 C78.83023437 3.12121094 79.65265625 3.10960937 80.5 3.09765625 C87.41109221 3.04179292 94.14969515 3.26587216 101.0078125 4.1328125 C101.0078125 4.7928125 101.0078125 5.4528125 101.0078125 6.1328125 C101.86052734 6.11541016 101.86052734 6.11541016 102.73046875 6.09765625 C107.61451734 6.04058056 112.19285215 6.31324478 117.0078125 7.1328125 C117.0078125 7.7928125 117.0078125 8.4528125 117.0078125 9.1328125 C118.2040625 9.1121875 119.4003125 9.0915625 120.6328125 9.0703125 C124.18786119 9.06398679 127.51336874 9.43392375 131.0078125 10.1328125 C131.0078125 10.7928125 131.0078125 11.4528125 131.0078125 12.1328125 C136.4528125 12.6278125 136.4528125 12.6278125 142.0078125 13.1328125 C142.0078125 13.7928125 142.0078125 14.4528125 142.0078125 15.1328125 C144.9778125 15.4628125 147.9478125 15.7928125 151.0078125 16.1328125 C151.0078125 16.7928125 151.0078125 17.4528125 151.0078125 18.1328125 C153.9778125 18.4628125 156.9478125 18.7928125 160.0078125 19.1328125 C160.0078125 19.7928125 160.0078125 20.4528125 160.0078125 21.1328125 C162.3178125 21.4628125 164.6278125 21.7928125 167.0078125 22.1328125 C167.0078125 22.7928125 167.0078125 23.4528125 167.0078125 24.1328125 C168.9878125 24.4628125 170.9678125 24.7928125 173.0078125 25.1328125 C173.0078125 25.7928125 173.0078125 26.4528125 173.0078125 27.1328125 C175.9778125 27.7928125 178.9478125 28.4528125 182.0078125 29.1328125 C182.0078125 29.7928125 182.0078125 30.4528125 182.0078125 31.1328125 C183.461875 31.3184375 183.461875 31.3184375 184.9453125 31.5078125 C185.9559375 31.7140625 186.9665625 31.9203125 188.0078125 32.1328125 C188.3378125 32.7928125 188.6678125 33.4528125 189.0078125 34.1328125 C189.9978125 34.4628125 190.9878125 34.7928125 192.0078125 35.1328125 C192.0078125 35.7928125 192.0078125 36.4528125 192.0078125 37.1328125 C192.7709375 37.2359375 193.5340625 37.3390625 194.3203125 37.4453125 C197.19197734 38.17992444 198.23823344 38.804419 200.0078125 41.1328125 C200.0078125 41.7928125 200.0078125 42.4528125 200.0078125 43.1328125 C201.3278125 43.4628125 202.6478125 43.7928125 204.0078125 44.1328125 C204.0078125 44.7928125 204.0078125 45.4528125 204.0078125 46.1328125 C204.9978125 46.4628125 205.9878125 46.7928125 207.0078125 47.1328125 C207.0078125 47.7928125 207.0078125 48.4528125 207.0078125 49.1328125 C207.9978125 49.4628125 208.9878125 49.7928125 210.0078125 50.1328125 C210.0078125 51.1228125 210.0078125 52.1128125 210.0078125 53.1328125 C210.9978125 53.4628125 211.9878125 53.7928125 213.0078125 54.1328125 C215.9869919 56.42448896 216.5125908 58.46817195 217.0078125 62.1328125 C217.6678125 62.1328125 218.3278125 62.1328125 219.0078125 62.1328125 C219.3378125 64.1128125 219.6678125 66.0928125 220.0078125 68.1328125 C220.6678125 68.1328125 221.3278125 68.1328125 222.0078125 68.1328125 C222.3378125 70.1128125 222.6678125 72.0928125 223.0078125 74.1328125 C223.6678125 74.1328125 224.3278125 74.1328125 225.0078125 74.1328125 C225.3378125 76.4428125 225.6678125 78.7528125 226.0078125 81.1328125 C226.6678125 81.1328125 227.3278125 81.1328125 228.0078125 81.1328125 C228.8801537 84.12762167 229.11611016 86.76857161 229.0703125 89.8828125 C229.05677734 91.08164063 229.05677734 91.08164063 229.04296875 92.3046875 C229.03136719 92.90796875 229.01976562 93.51125 229.0078125 94.1328125 C229.6678125 94.1328125 230.3278125 94.1328125 231.0078125 94.1328125 C231.0078125 168.3828125 231.0078125 242.6328125 231.0078125 319.1328125 C230.3478125 319.1328125 229.6878125 319.1328125 229.0078125 319.1328125 C229.01941406 319.70128906 229.03101563 320.26976562 229.04296875 320.85546875 C229.10004444 325.73951734 228.82738022 330.31785215 228.0078125 335.1328125 C227.3478125 335.1328125 226.6878125 335.1328125 226.0078125 335.1328125 C225.6778125 338.1028125 225.3478125 341.0728125 225.0078125 344.1328125 C224.3478125 344.1328125 223.6878125 344.1328125 223.0078125 344.1328125 C222.6778125 346.1128125 222.3478125 348.0928125 222.0078125 350.1328125 C221.3478125 350.1328125 220.6878125 350.1328125 220.0078125 350.1328125 C219.6778125 352.1128125 219.3478125 354.0928125 219.0078125 356.1328125 C218.3478125 356.1328125 217.6878125 356.1328125 217.0078125 356.1328125 C216.6778125 357.4528125 216.3478125 358.7728125 216.0078125 360.1328125 C215.3478125 360.1328125 214.6878125 360.1328125 214.0078125 360.1328125 C213.8840625 361.463125 213.8840625 361.463125 213.7578125 362.8203125 C212.90796902 366.57378787 211.66753441 368.39249296 209.0078125 371.1328125 C208.3478125 371.1328125 207.6878125 371.1328125 207.0078125 371.1328125 C206.6778125 372.4528125 206.3478125 373.7728125 206.0078125 375.1328125 C205.3478125 375.1328125 204.6878125 375.1328125 204.0078125 375.1328125 C203.6778125 376.1228125 203.3478125 377.1128125 203.0078125 378.1328125 C202.3478125 378.1328125 201.6878125 378.1328125 201.0078125 378.1328125 C200.6778125 379.1228125 200.3478125 380.1128125 200.0078125 381.1328125 C199.3478125 381.1328125 198.6878125 381.1328125 198.0078125 381.1328125 C197.6778125 382.1228125 197.3478125 383.1128125 197.0078125 384.1328125 C195.3578125 384.4628125 193.7078125 384.7928125 192.0078125 385.1328125 C191.6778125 386.1228125 191.3478125 387.1128125 191.0078125 388.1328125 C190.3478125 388.1328125 189.6878125 388.1328125 189.0078125 388.1328125 C189.0078125 388.7928125 189.0078125 389.4528125 189.0078125 390.1328125 C187.6878125 390.4628125 186.3678125 390.7928125 185.0078125 391.1328125 C185.0078125 391.7928125 185.0078125 392.4528125 185.0078125 393.1328125 C183.0278125 393.4628125 181.0478125 393.7928125 179.0078125 394.1328125 C179.0078125 394.7928125 179.0078125 395.4528125 179.0078125 396.1328125 C178.0178125 396.4628125 177.0278125 396.7928125 176.0078125 397.1328125 C175.6778125 397.7928125 175.3478125 398.4528125 175.0078125 399.1328125 C172.35920823 399.72636864 169.71583928 399.87490519 167.0078125 400.1328125 C167.0078125 400.7928125 167.0078125 401.4528125 167.0078125 402.1328125 C164.6978125 402.4628125 162.3878125 402.7928125 160.0078125 403.1328125 C160.0078125 403.7928125 160.0078125 404.4528125 160.0078125 405.1328125 C155.7178125 405.4628125 151.4278125 405.7928125 147.0078125 406.1328125 C147.0078125 406.7928125 147.0078125 407.4528125 147.0078125 408.1328125 C140.76914103 408.92044506 134.70552599 409.27471945 128.4216156 409.25306702 C127.49921005 409.25392144 126.5768045 409.25477587 125.62644726 409.25565618 C122.55880593 409.25729345 119.49122021 409.2518185 116.42358398 409.24633789 C114.21538799 409.24605561 112.00719191 409.24621454 109.79899597 409.2467804 C103.82037249 409.24706679 97.84176916 409.24119554 91.86315036 409.23420644 C85.60913111 409.22794665 79.35511138 409.22736702 73.10108948 409.22618103 C62.6093005 409.22342809 52.11751773 409.21718584 41.62573242 409.20825195 C30.8226729 409.19906262 20.01961538 409.19198923 9.21655273 409.18774414 C8.54983024 409.18748142 7.88310774 409.18721869 7.19618153 409.18694801 C3.85118529 409.1856429 0.50618904 409.18438147 -2.83880723 409.18313611 C-30.55660578 409.17268924 -58.27439612 409.15510477 -85.9921875 409.1328125 C-85.9921875 409.7928125 -85.9921875 410.4528125 -85.9921875 411.1328125 C-89.03346567 411.47006315 -92.07512941 411.80273582 -95.1171875 412.1328125 C-96.40109375 412.27589844 -96.40109375 412.27589844 -97.7109375 412.421875 C-102.16241224 412.90126459 -106.50660675 413.25046708 -110.9921875 413.1328125 C-110.9921875 413.7928125 -110.9921875 414.4528125 -110.9921875 415.1328125 C-113.6321875 415.4628125 -116.2721875 415.7928125 -118.9921875 416.1328125 C-118.9921875 416.7928125 -118.9921875 417.4528125 -118.9921875 418.1328125 C-121.9621875 418.4628125 -124.9321875 418.7928125 -127.9921875 419.1328125 C-127.9921875 419.7928125 -127.9921875 420.4528125 -127.9921875 421.1328125 C-129.9721875 421.4628125 -131.9521875 421.7928125 -133.9921875 422.1328125 C-133.9921875 422.7928125 -133.9921875 423.4528125 -133.9921875 424.1328125 C-135.9721875 424.4628125 -137.9521875 424.7928125 -139.9921875 425.1328125 C-139.9921875 425.7928125 -139.9921875 426.4528125 -139.9921875 427.1328125 C-140.9821875 427.4628125 -141.9721875 427.7928125 -142.9921875 428.1328125 C-143.3221875 428.7928125 -143.6521875 429.4528125 -143.9921875 430.1328125 C-146.5546875 430.7578125 -146.5546875 430.7578125 -148.9921875 431.1328125 C-148.9921875 431.7928125 -148.9921875 432.4528125 -148.9921875 433.1328125 C-149.9821875 433.4628125 -150.9721875 433.7928125 -151.9921875 434.1328125 C-152.4871875 434.6278125 -152.9821875 435.1228125 -153.4921875 435.6328125 C-154.9921875 437.1328125 -154.9921875 437.1328125 -157.9921875 438.1328125 C-159.33642089 439.79070035 -160.66837233 441.45857567 -161.9921875 443.1328125 C-162.7965625 443.7721875 -163.6009375 444.4115625 -164.4296875 445.0703125 C-166.56535306 446.78926283 -167.9980287 448.27084689 -169.6796875 450.3828125 C-170.4428125 451.2903125 -171.2059375 452.1978125 -171.9921875 453.1328125 C-172.6521875 453.1328125 -173.3121875 453.1328125 -173.9921875 453.1328125 C-174.146875 454.2775 -174.146875 454.2775 -174.3046875 455.4453125 C-175.03929944 458.31697734 -175.663794 459.36323344 -177.9921875 461.1328125 C-178.6521875 461.1328125 -179.3121875 461.1328125 -179.9921875 461.1328125 C-180.3221875 462.4528125 -180.6521875 463.7728125 -180.9921875 465.1328125 C-181.6521875 465.1328125 -182.3121875 465.1328125 -182.9921875 465.1328125 C-183.3221875 466.4528125 -183.6521875 467.7728125 -183.9921875 469.1328125 C-184.6521875 469.1328125 -185.3121875 469.1328125 -185.9921875 469.1328125 C-186.3221875 471.1128125 -186.6521875 473.0928125 -186.9921875 475.1328125 C-187.6521875 475.1328125 -188.3121875 475.1328125 -188.9921875 475.1328125 C-189.3221875 477.1128125 -189.6521875 479.0928125 -189.9921875 481.1328125 C-190.6521875 481.1328125 -191.3121875 481.1328125 -191.9921875 481.1328125 C-192.3221875 483.1128125 -192.6521875 485.0928125 -192.9921875 487.1328125 C-193.6521875 487.1328125 -194.3121875 487.1328125 -194.9921875 487.1328125 C-195.05277344 487.73609375 -195.11335937 488.339375 -195.17578125 488.9609375 C-195.25957031 489.76015625 -195.34335937 490.559375 -195.4296875 491.3828125 C-195.55150391 492.56617188 -195.55150391 492.56617188 -195.67578125 493.7734375 C-195.96853743 495.95645889 -196.41283169 498.0101307 -196.9921875 500.1328125 C-197.6521875 500.1328125 -198.3121875 500.1328125 -198.9921875 500.1328125 C-199.3221875 504.0928125 -199.6521875 508.0528125 -199.9921875 512.1328125 C-200.6521875 512.1328125 -201.3121875 512.1328125 -201.9921875 512.1328125 C-202.3221875 551.0728125 -202.6521875 590.0128125 -202.9921875 630.1328125 C-232.6921875 630.1328125 -262.3921875 630.1328125 -292.9921875 630.1328125 C-292.9921875 629.4728125 -292.9921875 628.8128125 -292.9921875 628.1328125 C-293.59546875 628.14441406 -294.19875 628.15601563 -294.8203125 628.16796875 C-296.01914062 628.18150391 -296.01914062 628.18150391 -297.2421875 628.1953125 C-298.42554688 628.21271484 -298.42554688 628.21271484 -299.6328125 628.23046875 C-301.89909752 628.13666556 -303.821077 627.76522313 -305.9921875 627.1328125 C-305.9921875 626.4728125 -305.9921875 625.8128125 -305.9921875 625.1328125 C-308.9621875 624.8028125 -311.9321875 624.4728125 -314.9921875 624.1328125 C-314.9921875 623.4728125 -314.9921875 622.8128125 -314.9921875 622.1328125 C-316.9721875 621.8028125 -318.9521875 621.4728125 -320.9921875 621.1328125 C-320.9921875 620.4728125 -320.9921875 619.8128125 -320.9921875 619.1328125 C-321.9615625 619.0090625 -322.9309375 618.8853125 -323.9296875 618.7578125 C-324.9403125 618.5515625 -325.9509375 618.3453125 -326.9921875 618.1328125 C-327.3221875 617.4728125 -327.6521875 616.8128125 -327.9921875 616.1328125 C-329.63581884 615.41121826 -331.30269136 614.73929829 -332.9921875 614.1328125 C-332.9921875 613.4728125 -332.9921875 612.8128125 -332.9921875 612.1328125 C-334.3121875 611.8028125 -335.6321875 611.4728125 -336.9921875 611.1328125 C-336.9921875 610.4728125 -336.9921875 609.8128125 -336.9921875 609.1328125 C-337.9821875 608.8028125 -338.9721875 608.4728125 -339.9921875 608.1328125 C-339.9921875 607.4728125 -339.9921875 606.8128125 -339.9921875 606.1328125 C-340.9821875 605.8028125 -341.9721875 605.4728125 -342.9921875 605.1328125 C-342.9921875 604.4728125 -342.9921875 603.8128125 -342.9921875 603.1328125 C-343.9821875 602.8028125 -344.9721875 602.4728125 -345.9921875 602.1328125 C-345.9921875 601.4728125 -345.9921875 600.8128125 -345.9921875 600.1328125 C-346.9821875 599.8028125 -347.9721875 599.4728125 -348.9921875 599.1328125 C-349.3221875 597.4828125 -349.6521875 595.8328125 -349.9921875 594.1328125 C-350.9821875 593.8028125 -351.9721875 593.4728125 -352.9921875 593.1328125 C-352.9921875 592.1428125 -352.9921875 591.1528125 -352.9921875 590.1328125 C-353.9821875 589.8028125 -354.9721875 589.4728125 -355.9921875 589.1328125 C-355.9921875 588.1428125 -355.9921875 587.1528125 -355.9921875 586.1328125 C-356.6521875 586.1328125 -357.3121875 586.1328125 -357.9921875 586.1328125 C-358.3221875 584.4828125 -358.6521875 582.8328125 -358.9921875 581.1328125 C-359.6521875 581.1328125 -360.3121875 581.1328125 -360.9921875 581.1328125 C-361.4871875 579.6478125 -361.4871875 579.6478125 -361.9921875 578.1328125 C-362.6521875 577.8028125 -363.3121875 577.4728125 -363.9921875 577.1328125 C-364.6171875 574.0703125 -364.6171875 574.0703125 -364.9921875 571.1328125 C-365.6521875 571.1328125 -366.3121875 571.1328125 -366.9921875 571.1328125 C-367.3221875 569.1528125 -367.6521875 567.1728125 -367.9921875 565.1328125 C-368.6521875 565.1328125 -369.3121875 565.1328125 -369.9921875 565.1328125 C-370.3221875 562.8228125 -370.6521875 560.5128125 -370.9921875 558.1328125 C-371.6521875 558.1328125 -372.3121875 558.1328125 -372.9921875 558.1328125 C-374.41477562 554.30960693 -375.23261026 551.21999945 -374.9921875 547.1328125 C-375.6521875 547.1328125 -376.3121875 547.1328125 -376.9921875 547.1328125 C-377.4871875 543.1728125 -377.4871875 543.1728125 -377.9921875 539.1328125 C-378.6521875 539.1328125 -379.3121875 539.1328125 -379.9921875 539.1328125 C-380.3221875 535.5028125 -380.6521875 531.8728125 -380.9921875 528.1328125 C-381.6521875 528.1328125 -382.3121875 528.1328125 -382.9921875 528.1328125 C-383.3221875 524.8328125 -383.6521875 521.5328125 -383.9921875 518.1328125 C-384.6521875 518.1328125 -385.3121875 518.1328125 -385.9921875 518.1328125 C-386.3221875 513.8428125 -386.6521875 509.5528125 -386.9921875 505.1328125 C-387.6521875 505.1328125 -388.3121875 505.1328125 -388.9921875 505.1328125 C-389.8242457 499.41241239 -390.11255414 493.91041134 -389.9921875 488.1328125 C-390.6521875 488.1328125 -391.3121875 488.1328125 -391.9921875 488.1328125 C-393.16620943 480.79517543 -393.08595873 473.55115832 -392.9921875 466.1328125 C-393.6521875 466.1328125 -394.3121875 466.1328125 -394.9921875 466.1328125 C-396.01976189 452.78253797 -396.14687069 439.47088158 -396.12255859 426.08520508 C-396.11719166 422.57303564 -396.12253875 419.06099374 -396.12890625 415.54882812 C-396.13204181 403.70360992 -395.9769055 391.94157764 -394.9921875 380.1328125 C-394.3321875 380.1328125 -393.6721875 380.1328125 -392.9921875 380.1328125 C-393.00378906 379.37097656 -393.01539063 378.60914063 -393.02734375 377.82421875 C-393.08266044 371.49440928 -392.8287801 365.40725701 -391.9921875 359.1328125 C-391.3321875 359.1328125 -390.6721875 359.1328125 -389.9921875 359.1328125 C-390.00378906 358.55273438 -390.01539063 357.97265625 -390.02734375 357.375 C-390.07980924 352.8329879 -389.90969813 348.60567681 -388.9921875 344.1328125 C-388.3321875 344.1328125 -387.6721875 344.1328125 -386.9921875 344.1328125 C-386.6621875 339.8428125 -386.3321875 335.5528125 -385.9921875 331.1328125 C-385.3321875 331.1328125 -384.6721875 331.1328125 -383.9921875 331.1328125 C-383.6621875 327.8328125 -383.3321875 324.5328125 -382.9921875 321.1328125 C-382.3321875 321.1328125 -381.6721875 321.1328125 -380.9921875 321.1328125 C-380.6621875 318.1628125 -380.3321875 315.1928125 -379.9921875 312.1328125 C-379.3321875 312.1328125 -378.6721875 312.1328125 -377.9921875 312.1328125 C-377.6621875 309.8228125 -377.3321875 307.5128125 -376.9921875 305.1328125 C-376.3321875 305.1328125 -375.6721875 305.1328125 -374.9921875 305.1328125 C-374.0021875 299.6878125 -374.0021875 299.6878125 -372.9921875 294.1328125 C-372.3321875 294.1328125 -371.6721875 294.1328125 -370.9921875 294.1328125 C-370.6621875 292.1528125 -370.3321875 290.1728125 -369.9921875 288.1328125 C-369.3321875 288.1328125 -368.6721875 288.1328125 -367.9921875 288.1328125 C-367.6621875 286.4828125 -367.3321875 284.8328125 -366.9921875 283.1328125 C-366.3321875 283.1328125 -365.6721875 283.1328125 -364.9921875 283.1328125 C-364.6621875 281.4828125 -364.3321875 279.8328125 -363.9921875 278.1328125 C-363.3321875 278.1328125 -362.6721875 278.1328125 -361.9921875 278.1328125 C-361.6621875 276.8128125 -361.3321875 275.4928125 -360.9921875 274.1328125 C-360.3321875 274.1328125 -359.6721875 274.1328125 -358.9921875 274.1328125 C-358.8890625 273.3696875 -358.7859375 272.6065625 -358.6796875 271.8203125 C-357.94507556 268.94864766 -357.320581 267.90239156 -354.9921875 266.1328125 C-354.3321875 266.1328125 -353.6721875 266.1328125 -352.9921875 266.1328125 C-352.6621875 264.8128125 -352.3321875 263.4928125 -351.9921875 262.1328125 C-351.3321875 262.1328125 -350.6721875 262.1328125 -349.9921875 262.1328125 C-349.651875 260.9571875 -349.651875 260.9571875 -349.3046875 259.7578125 C-347.65781712 256.46407175 -346.34860397 256.33767995 -342.9921875 255.1328125 C-342.6621875 254.1428125 -342.3321875 253.1528125 -341.9921875 252.1328125 C-341.0021875 252.1328125 -340.0121875 252.1328125 -338.9921875 252.1328125 C-338.9921875 251.4728125 -338.9921875 250.8128125 -338.9921875 250.1328125 C-334.63924632 246.1328125 -334.63924632 246.1328125 -330.9921875 246.1328125 C-330.6621875 245.1428125 -330.3321875 244.1528125 -329.9921875 243.1328125 C-329.0021875 243.1328125 -328.0121875 243.1328125 -326.9921875 243.1328125 C-326.9921875 242.4728125 -326.9921875 241.8128125 -326.9921875 241.1328125 C-326.0021875 240.8028125 -325.0121875 240.4728125 -323.9921875 240.1328125 C-323.6621875 239.4728125 -323.3321875 238.8128125 -322.9921875 238.1328125 C-319.9296875 237.5078125 -319.9296875 237.5078125 -316.9921875 237.1328125 C-316.9921875 236.4728125 -316.9921875 235.8128125 -316.9921875 235.1328125 C-315.0121875 234.8028125 -313.0321875 234.4728125 -310.9921875 234.1328125 C-310.9921875 233.4728125 -310.9921875 232.8128125 -310.9921875 232.1328125 C-309.57680033 231.79408737 -308.15980787 231.46206626 -306.7421875 231.1328125 C-305.95328125 230.9471875 -305.164375 230.7615625 -304.3515625 230.5703125 C-301.9921875 230.1328125 -301.9921875 230.1328125 -297.9921875 230.1328125 C-297.9921875 229.4728125 -297.9921875 228.8128125 -297.9921875 228.1328125 C-294.3621875 227.8028125 -290.7321875 227.4728125 -286.9921875 227.1328125 C-286.9921875 226.4728125 -286.9921875 225.8128125 -286.9921875 225.1328125 C-281.28528116 224.14030705 -275.77810261 224.02803738 -269.9921875 224.1328125 C-269.9921875 223.4728125 -269.9921875 222.8128125 -269.9921875 222.1328125 C-172.6421875 221.8028125 -75.2921875 221.4728125 25.0078125 221.1328125 C25.0078125 212.2228125 25.0078125 203.3128125 25.0078125 194.1328125 C-41.6521875 193.8028125 -108.3121875 193.4728125 -176.9921875 193.1328125 C-176.9921875 156.5028125 -176.9921875 119.8728125 -176.9921875 82.1328125 C-176.3321875 82.1328125 -175.6721875 82.1328125 -174.9921875 82.1328125 C-174.6621875 78.8328125 -174.3321875 75.5328125 -173.9921875 72.1328125 C-173.3321875 72.1328125 -172.6721875 72.1328125 -171.9921875 72.1328125 C-171.3321875 69.1628125 -170.6721875 66.1928125 -169.9921875 63.1328125 C-169.3321875 63.1328125 -168.6721875 63.1328125 -167.9921875 63.1328125 C-167.8375 61.740625 -167.8375 61.740625 -167.6796875 60.3203125 C-166.98687255 57.10817045 -166.6042706 56.01351233 -163.9921875 54.1328125 C-163.3321875 54.1328125 -162.6721875 54.1328125 -161.9921875 54.1328125 C-161.9303125 53.5553125 -161.8684375 52.9778125 -161.8046875 52.3828125 C-160.66780217 49.23451466 -158.62311521 48.15189656 -155.9921875 46.1328125 C-154.62973954 44.48986055 -153.29353875 42.82456913 -151.9921875 41.1328125 C-149.58367956 38.20071588 -147.74033901 37.63931946 -143.9921875 37.1328125 C-143.9921875 36.4728125 -143.9921875 35.8128125 -143.9921875 35.1328125 C-142.6721875 34.8028125 -141.3521875 34.4728125 -139.9921875 34.1328125 C-139.9921875 33.4728125 -139.9921875 32.8128125 -139.9921875 32.1328125 C-139.0021875 31.8028125 -138.0121875 31.4728125 -136.9921875 31.1328125 C-136.6621875 30.4728125 -136.3321875 29.8128125 -135.9921875 29.1328125 C-133.92578125 28.5 -133.92578125 28.5 -131.4296875 28.0078125 C-130.19025391 27.75644531 -130.19025391 27.75644531 -128.92578125 27.5 C-128.28769531 27.37882812 -127.64960938 27.25765625 -126.9921875 27.1328125 C-126.9921875 26.4728125 -126.9921875 25.8128125 -126.9921875 25.1328125 C-125.0121875 24.8028125 -123.0321875 24.4728125 -120.9921875 24.1328125 C-120.9921875 23.4728125 -120.9921875 22.8128125 -120.9921875 22.1328125 C-118.6821875 21.8028125 -116.3721875 21.4728125 -113.9921875 21.1328125 C-113.9921875 20.4728125 -113.9921875 19.8128125 -113.9921875 19.1328125 C-111.0221875 18.8028125 -108.0521875 18.4728125 -104.9921875 18.1328125 C-104.9921875 17.4728125 -104.9921875 16.8128125 -104.9921875 16.1328125 C-102.0221875 15.8028125 -99.0521875 15.4728125 -95.9921875 15.1328125 C-95.9921875 14.4728125 -95.9921875 13.8128125 -95.9921875 13.1328125 C-92.6921875 12.8028125 -89.3921875 12.4728125 -85.9921875 12.1328125 C-85.9921875 11.4728125 -85.9921875 10.8128125 -85.9921875 10.1328125 C-82.0321875 9.8028125 -78.0721875 9.4728125 -73.9921875 9.1328125 C-73.9921875 8.4728125 -73.9921875 7.8128125 -73.9921875 7.1328125 C-68.60728109 6.21623269 -63.44988561 6.02143091 -57.9921875 6.1328125 C-57.9921875 5.4728125 -57.9921875 4.8128125 -57.9921875 4.1328125 C-49.96886353 3.23239939 -42.06248303 3.01733927 -33.9921875 3.1328125 C-33.9921875 2.4728125 -33.9921875 1.8128125 -33.9921875 1.1328125 C-22.64684478 0.2857847 -11.37462558 -0.01646951 0 0 Z M-98.9921875 66.1328125 C-98.9921875 66.7928125 -98.9921875 67.4528125 -98.9921875 68.1328125 C-101.3021875 68.4628125 -103.6121875 68.7928125 -105.9921875 69.1328125 C-105.9921875 69.7928125 -105.9921875 70.4528125 -105.9921875 71.1328125 C-107.9721875 71.4628125 -109.9521875 71.7928125 -111.9921875 72.1328125 C-111.9921875 72.7928125 -111.9921875 73.4528125 -111.9921875 74.1328125 C-112.9821875 74.4628125 -113.9721875 74.7928125 -114.9921875 75.1328125 C-114.9921875 75.7928125 -114.9921875 76.4528125 -114.9921875 77.1328125 C-116.9721875 78.1228125 -116.9721875 78.1228125 -118.9921875 79.1328125 C-118.9921875 80.1228125 -118.9921875 81.1128125 -118.9921875 82.1328125 C-119.6521875 82.1328125 -120.3121875 82.1328125 -120.9921875 82.1328125 C-121.3221875 84.1128125 -121.6521875 86.0928125 -121.9921875 88.1328125 C-122.6521875 88.1328125 -123.3121875 88.1328125 -123.9921875 88.1328125 C-125.24456602 92.97335488 -125.13986078 97.73364389 -125.1171875 102.6953125 C-125.12105469 103.54544922 -125.12492187 104.39558594 -125.12890625 105.27148438 C-125.12761719 106.09326172 -125.12632812 106.91503906 -125.125 107.76171875 C-125.12387207 108.50494385 -125.12274414 109.24816895 -125.12158203 110.01391602 C-124.99018901 112.16553871 -124.58138329 114.06360604 -123.9921875 116.1328125 C-123.3321875 116.1328125 -122.6721875 116.1328125 -121.9921875 116.1328125 C-121.6621875 118.1128125 -121.3321875 120.0928125 -120.9921875 122.1328125 C-120.3321875 122.1328125 -119.6721875 122.1328125 -118.9921875 122.1328125 C-118.3321875 124.1128125 -117.6721875 126.0928125 -116.9921875 128.1328125 C-115.3421875 128.4628125 -113.6921875 128.7928125 -111.9921875 129.1328125 C-111.4971875 130.6178125 -111.4971875 130.6178125 -110.9921875 132.1328125 C-110.3321875 132.1328125 -109.6721875 132.1328125 -108.9921875 132.1328125 C-108.9921875 132.7928125 -108.9921875 133.4528125 -108.9921875 134.1328125 C-105.5271875 134.6278125 -105.5271875 134.6278125 -101.9921875 135.1328125 C-101.9921875 135.7928125 -101.9921875 136.4528125 -101.9921875 137.1328125 C-97.63636544 138.20685082 -93.38853635 138.28233413 -88.9296875 138.2578125 C-88.22263672 138.26167969 -87.51558594 138.26554687 -86.78710938 138.26953125 C-83.38324219 138.26313901 -80.24494287 138.19735062 -76.9921875 137.1328125 C-76.9921875 136.4728125 -76.9921875 135.8128125 -76.9921875 135.1328125 C-75.3421875 135.1328125 -73.6921875 135.1328125 -71.9921875 135.1328125 C-71.4971875 133.6478125 -71.4971875 133.6478125 -70.9921875 132.1328125 C-68.9296875 131.4453125 -68.9296875 131.4453125 -66.9921875 131.1328125 C-66.9921875 130.4728125 -66.9921875 129.8128125 -66.9921875 129.1328125 C-66.2290625 128.8646875 -65.4659375 128.5965625 -64.6796875 128.3203125 C-62.03303578 127.15086174 -60.69663134 126.43381168 -58.9921875 124.1328125 C-58.27021588 121.52670173 -58.27021588 121.52670173 -57.9921875 119.1328125 C-57.3321875 119.1328125 -56.6721875 119.1328125 -55.9921875 119.1328125 C-55.6621875 116.1628125 -55.3321875 113.1928125 -54.9921875 110.1328125 C-54.3321875 110.1328125 -53.6721875 110.1328125 -52.9921875 110.1328125 C-52.9921875 104.8528125 -52.9921875 99.5728125 -52.9921875 94.1328125 C-53.6521875 94.1328125 -54.3121875 94.1328125 -54.9921875 94.1328125 C-55.4871875 89.6778125 -55.4871875 89.6778125 -55.9921875 85.1328125 C-56.6521875 85.1328125 -57.3121875 85.1328125 -57.9921875 85.1328125 C-58.4871875 83.1528125 -58.4871875 83.1528125 -58.9921875 81.1328125 C-59.6521875 81.1328125 -60.3121875 81.1328125 -60.9921875 81.1328125 C-61.4871875 79.1528125 -61.4871875 79.1528125 -61.9921875 77.1328125 C-62.6521875 77.1328125 -63.3121875 77.1328125 -63.9921875 77.1328125 C-63.9921875 76.4728125 -63.9921875 75.8128125 -63.9921875 75.1328125 C-64.9821875 74.8028125 -65.9721875 74.4728125 -66.9921875 74.1328125 C-67.6521875 73.1428125 -68.3121875 72.1528125 -68.9921875 71.1328125 C-69.9821875 71.1328125 -70.9721875 71.1328125 -71.9921875 71.1328125 C-71.9921875 70.4728125 -71.9921875 69.8128125 -71.9921875 69.1328125 C-74.6321875 68.8028125 -77.2721875 68.4728125 -79.9921875 68.1328125 C-79.9921875 67.4728125 -79.9921875 66.8128125 -79.9921875 66.1328125 C-86.2621875 66.1328125 -92.5321875 66.1328125 -98.9921875 66.1328125 Z " fill="#2870A8" transform="translate(476.9921875,59.8671875)"/>
<path d="M0 0 C0 0.99 0 1.98 0 3 C-0.99 3 -1.98 3 -3 3 C-3 3.66 -3 4.32 -3 5 C-3.99 5 -4.98 5 -6 5 C-6 5.66 -6 6.32 -6 7 C-10.35294118 11 -10.35294118 11 -14 11 C-14.66 12.98 -15.32 14.96 -16 17 C-16.99 17 -17.98 17 -19 17 C-19 17.66 -19 18.32 -19 19 C-19.99 19 -20.98 19 -22 19 C-22 19.99 -22 20.98 -22 22 C-25.96 22.495 -25.96 22.495 -30 23 C-30.33 23.99 -30.66 24.98 -31 26 C-31.99 26 -32.98 26 -34 26 C-34 26.66 -34 27.32 -34 28 C-36.475 28.495 -36.475 28.495 -39 29 C-39 29.66 -39 30.32 -39 31 C-41.90600261 32.25664978 -43.79604584 33 -47 33 C-47 33.66 -47 34.32 -47 35 C-49.64 35.33 -52.28 35.66 -55 36 C-55.33 37.65 -55.66 39.3 -56 41 C-56.66 41 -57.32 41 -58 41 C-58 40.34 -58 39.68 -58 39 C-58.99 39 -59.98 39 -61 39 C-61 39.66 -61 40.32 -61 41 C-62.65 41.33 -64.3 41.66 -66 42 C-66 42.66 -66 43.32 -66 44 C-66.804375 44.12375 -67.60875 44.2475 -68.4375 44.375 C-69.283125 44.58125 -70.12875 44.7875 -71 45 C-71.33 45.66 -71.66 46.32 -72 47 C-72.66 47 -73.32 47 -74 47 C-74 46.34 -74 45.68 -74 45 C-74.99 45 -75.98 45 -77 45 C-77 45.66 -77 46.32 -77 47 C-77.63808594 47.04898438 -78.27617188 47.09796875 -78.93359375 47.1484375 C-79.75988281 47.22320313 -80.58617187 47.29796875 -81.4375 47.375 C-82.26121094 47.44460938 -83.08492187 47.51421875 -83.93359375 47.5859375 C-84.95646484 47.79089844 -84.95646484 47.79089844 -86 48 C-86.33 48.66 -86.66 49.32 -87 50 C-87 49.34 -87 48.68 -87 48 C-87.66 48 -88.32 48 -89 48 C-89 48.66 -89 49.32 -89 50 C-92.15506142 50.93619813 -94.96586502 51.1057123 -98.25 51.0625 C-99.14203125 51.05347656 -100.0340625 51.04445313 -100.953125 51.03515625 C-101.62859375 51.02355469 -102.3040625 51.01195312 -103 51 C-103 51.66 -103 52.32 -103 53 C-107.44147569 53.85916096 -111.62769824 54.11697565 -116.1484375 54.09765625 C-117.13452499 54.09553383 -117.13452499 54.09553383 -118.14053345 54.09336853 C-120.21873731 54.08781762 -122.29682927 54.07527465 -124.375 54.0625 C-125.79296718 54.05747864 -127.21093607 54.05291685 -128.62890625 54.04882812 C-132.08597322 54.03786437 -135.54297567 54.02063421 -139 54 C-139.33 54.66 -139.66 55.32 -140 56 C-140 55.34 -140 54.68 -140 54 C-140.66 54 -141.32 54 -142 54 C-142.33 54.66 -142.66 55.32 -143 56 C-143 55.34 -143 54.68 -143 54 C-156.2 54 -169.4 54 -183 54 C-183.33 54.66 -183.66 55.32 -184 56 C-184 55.34 -184 54.68 -184 54 C-188.95 54 -193.9 54 -199 54 C-199.33 54.66 -199.66 55.32 -200 56 C-200 55.34 -200 54.68 -200 54 C-200.66 54 -201.32 54 -202 54 C-202.33 54.66 -202.66 55.32 -203 56 C-203 55.34 -203 54.68 -203 54 C-205.64 54 -208.28 54 -211 54 C-211.33 54.66 -211.66 55.32 -212 56 C-212 55.34 -212 54.68 -212 54 C-217.28 54 -222.56 54 -228 54 C-228 54.66 -228 55.32 -228 56 C-228.99 56 -229.98 56 -231 56 C-231 55.34 -231 54.68 -231 54 C-231.99 54 -232.98 54 -234 54 C-234 54.66 -234 55.32 -234 56 C-235.65 56 -237.3 56 -239 56 C-239 55.34 -239 54.68 -239 54 C-249.23 54 -259.46 54 -270 54 C-270.33 54.99 -270.66 55.98 -271 57 C-271 56.01 -271 55.02 -271 54 C-272.98 54 -274.96 54 -277 54 C-277.33 54.66 -277.66 55.32 -278 56 C-278 55.34 -278 54.68 -278 54 C-278.66 54 -279.32 54 -280 54 C-280.33 54.66 -280.66 55.32 -281 56 C-281 55.34 -281 54.68 -281 54 C-292.88 54 -304.76 54 -317 54 C-317.33 54.99 -317.66 55.98 -318 57 C-318.66 56.67 -319.32 56.34 -320 56 C-320 55.34 -320 54.68 -320 54 C-321.32 54 -322.64 54 -324 54 C-324.33 54.66 -324.66 55.32 -325 56 C-325 55.34 -325 54.68 -325 54 C-326.65 54 -328.3 54 -330 54 C-330.33 54.66 -330.66 55.32 -331 56 C-331 55.34 -331 54.68 -331 54 C-334.96 54 -338.92 54 -343 54 C-343 54.66 -343 55.32 -343 56 C-343.66 56 -344.32 56 -345 56 C-345 55.34 -345 54.68 -345 54 C-345.66 54 -346.32 54 -347 54 C-347 54.66 -347 55.32 -347 56 C-347.66 56 -348.32 56 -349 56 C-349 55.34 -349 54.68 -349 54 C-350.32 54 -351.64 54 -353 54 C-353 54.66 -353 55.32 -353 56 C-353.66 56 -354.32 56 -355 56 C-355 55.34 -355 54.68 -355 54 C-369.19 54 -383.38 54 -398 54 C-398 54.66 -398 55.32 -398 56 C-398.66 56 -399.32 56 -400 56 C-400 55.34 -400 54.68 -400 54 C-401.65 54 -403.3 54 -405 54 C-405.33 54.66 -405.66 55.32 -406 56 C-406 55.34 -406 54.68 -406 54 C-412.27 54 -418.54 54 -425 54 C-425 54.66 -425 55.32 -425 56 C-425.66 56 -426.32 56 -427 56 C-427 55.34 -427 54.68 -427 54 C-427.99 54 -428.98 54 -430 54 C-430.33 54.66 -430.66 55.32 -431 56 C-431 55.34 -431 54.68 -431 54 C-440.24 54 -449.48 54 -459 54 C-459 54.66 -459 55.32 -459 56 C-459.66 56 -460.32 56 -461 56 C-461 55.34 -461 54.68 -461 54 C-462.98 54 -464.96 54 -467 54 C-467.33 54.66 -467.66 55.32 -468 56 C-468 55.34 -468 54.68 -468 54 C-473.94 54 -479.88 54 -486 54 C-486.33 54.66 -486.66 55.32 -487 56 C-487 55.34 -487 54.68 -487 54 C-497.89 54 -508.78 54 -520 54 C-520.33 54.66 -520.66 55.32 -521 56 C-521 55.34 -521 54.68 -521 54 C-523.31 54 -525.62 54 -528 54 C-528 54.66 -528 55.32 -528 56 C-528.66 56 -529.32 56 -530 56 C-530 55.34 -530 54.68 -530 54 C-531.98 54 -533.96 54 -536 54 C-536.33 54.66 -536.66 55.32 -537 56 C-537 55.34 -537 54.68 -537 54 C-553.5 54 -570 54 -587 54 C-587 54.66 -587 55.32 -587 56 C-587.66 56 -588.32 56 -589 56 C-589 55.34 -589 54.68 -589 54 C-603.85 54 -618.7 54 -634 54 C-634 54.66 -634 55.32 -634 56 C-634.66 56 -635.32 56 -636 56 C-636 55.34 -636 54.68 -636 54 C-661.08 54 -686.16 54 -712 54 C-712 54.66 -712 55.32 -712 56 C-712.66 56 -713.32 56 -714 56 C-714 55.34 -714 54.68 -714 54 C-721.26 54 -728.52 54 -736 54 C-736.495 54.99 -736.495 54.99 -737 56 C-737 55.34 -737 54.68 -737 54 C-741.62 54 -746.24 54 -751 54 C-751.495 54.99 -751.495 54.99 -752 56 C-752 55.34 -752 54.68 -752 54 C-759.92 54 -767.84 54 -776 54 C-776.495 54.99 -776.495 54.99 -777 56 C-777 55.34 -777 54.68 -777 54 C-781.95 53.67 -786.9 53.34 -792 53 C-792 52.34 -792 51.68 -792 51 C-797.28 51 -802.56 51 -808 51 C-808.33 50.01 -808.66 49.02 -809 48 C-812.63 47.67 -816.26 47.34 -820 47 C-820 46.34 -820 45.68 -820 45 C-823.3 44.67 -826.6 44.34 -830 44 C-830 43.34 -830 42.68 -830 42 C-831.98 42 -833.96 42 -836 42 C-836.33 41.01 -836.66 40.02 -837 39 C-838.98 39 -840.96 39 -843 39 C-843 38.01 -843 37.02 -843 36 C-846.96 35.505 -846.96 35.505 -851 35 C-851 34.34 -851 33.68 -851 33 C-852.32 32.67 -853.64 32.34 -855 32 C-851.06329512 30.68776504 -848.87511856 31.75703744 -845 33 C-845 33.66 -845 34.32 -845 35 C-843.02 35.33 -841.04 35.66 -839 36 C-839 36.66 -839 37.32 -839 38 C-836.03 38.33 -833.06 38.66 -830 39 C-830 39.66 -830 40.32 -830 41 C-827.03 41.33 -824.06 41.66 -821 42 C-821 42.66 -821 43.32 -821 44 C-817.7 44.33 -814.4 44.66 -811 45 C-811 45.66 -811 46.32 -811 47 C-806.71 47.33 -802.42 47.66 -798 48 C-798 48.66 -798 49.32 -798 50 C-797.40316406 49.98839844 -796.80632812 49.97679687 -796.19140625 49.96484375 C-787.43189687 49.87373444 -778.73561575 50.42650119 -770 51 C-770 51.66 -770 52.32 -770 53 C-556.82 53 -343.64 53 -124 53 C-124 52.34 -124 51.68 -124 51 C-116.08 50.67 -108.16 50.34 -100 50 C-100 49.34 -100 48.68 -100 48 C-95.38 47.67 -90.76 47.34 -86 47 C-86 46.34 -86 45.68 -86 45 C-82.37 44.67 -78.74 44.34 -75 44 C-75 43.34 -75 42.68 -75 42 C-70.545 41.505 -70.545 41.505 -66 41 C-66 40.34 -66 39.68 -66 39 C-63.69 38.67 -61.38 38.34 -59 38 C-59 37.34 -59 36.68 -59 36 C-56.03 35.505 -56.03 35.505 -53 35 C-53 34.34 -53 33.68 -53 33 C-50.03 32.34 -47.06 31.68 -44 31 C-44 30.34 -44 29.68 -44 29 C-41.525 28.505 -41.525 28.505 -39 28 C-39 27.34 -39 26.68 -39 26 C-36.525 25.505 -36.525 25.505 -34 25 C-34 24.34 -34 23.68 -34 23 C-32.02 22.67 -30.04 22.34 -28 22 C-27.67 21.01 -27.34 20.02 -27 19 C-26.01 19 -25.02 19 -24 19 C-24 18.34 -24 17.68 -24 17 C-21.525 16.505 -21.525 16.505 -19 16 C-18.67 15.01 -18.34 14.02 -18 13 C-17.34 13 -16.68 13 -16 13 C-15.67 12.01 -15.34 11.02 -15 10 C-14.01 10 -13.02 10 -12 10 C-11.67 9.01 -11.34 8.02 -11 7 C-10.34 7 -9.68 7 -9 7 C-8.67 6.01 -8.34 5.02 -8 4 C-5.68170087 1.26019194 -3.72006341 0 0 0 Z " fill="#E9E9E9" transform="translate(961,952)"/>
<path d="M0 0 C93.39 0 186.78 0 283 0 C283 0.66 283 1.32 283 2 C280.66563249 3.16718375 279.3155417 3.12530323 276.71522617 3.12584114 C275.35785448 3.12975276 275.35785448 3.12975276 273.97306114 3.13374341 C272.97241865 3.13151268 271.97177615 3.12928196 270.94081116 3.12698364 C269.35352043 3.12932363 269.35352043 3.12932363 267.73416322 3.13171089 C264.16398881 3.13572105 260.59385642 3.132531 257.02368164 3.12939453 C254.47296626 3.1307487 251.92225107 3.13252872 249.37153625 3.13470459 C243.14368604 3.13880464 236.91585154 3.138185 230.6880011 3.13529195 C225.61813028 3.13303453 220.54826283 3.13272688 215.47839165 3.13381577 C214.75700372 3.133969 214.03561579 3.13412223 213.29236762 3.13428011 C211.82670558 3.13459985 210.36104354 3.13492406 208.8953815 3.1352527 C195.1297547 3.13810841 181.36413454 3.13482084 167.59850883 3.12945233 C155.81965683 3.12500031 144.0408147 3.12574676 132.26196289 3.13037109 C118.5722986 3.13574313 104.88264018 3.13781676 91.19297498 3.13475883 C89.72747545 3.13444031 88.26197591 3.13412594 86.79647636 3.13381577 C86.07554298 3.13366149 85.3546096 3.13350721 84.61182975 3.13334826 C79.5642425 3.13248976 74.51665901 3.13393188 69.46907234 3.13629532 C62.64258718 3.13942135 55.81612074 3.1371411 48.98963737 3.13140106 C46.49654038 3.13008932 44.00344181 3.13044029 41.51034546 3.13266373 C27.63811616 3.14388475 13.84415642 2.91638832 0 2 C0 1.34 0 0.68 0 0 Z " fill="#1467A5" transform="translate(222,282)"/>
<path d="M0 0 C73.92 0 147.84 0 224 0 C224 0.66 224 1.32 224 2 C219.96426189 3.34524604 216.07746725 3.13402522 211.86958313 3.12025452 C210.92371926 3.12110894 209.97785539 3.12196337 209.00332898 3.12284368 C205.82031555 3.12449642 202.63735432 3.11898044 199.4543457 3.11352539 C197.17807008 3.11324345 194.90179437 3.11340139 192.6255188 3.1139679 C186.43373723 3.1142556 180.24197492 3.10836326 174.05019784 3.10139394 C167.5839372 3.09515587 161.11767615 3.09455624 154.65141296 3.09336853 C143.79421616 3.09061045 132.93702728 3.08435808 122.07983398 3.07543945 C110.8962406 3.06626225 99.71264913 3.05918292 88.52905273 3.05493164 C87.49524102 3.05453756 87.49524102 3.05453756 86.44054423 3.05413551 C82.98303568 3.05283048 79.52552712 3.05156677 76.06801856 3.05032361 C47.37867425 3.03995472 18.6893374 3.02226538 -10 3 C-10 2.67 -10 2.34 -10 2 C-6.7 2 -3.4 2 0 2 C0 1.34 0 0.68 0 0 Z " fill="#175C98" transform="translate(394,466)"/>
<path d="M0 0 C0.99 0 1.98 0 3 0 C3 64.35 3 128.7 3 195 C2.34 195 1.68 195 1 195 C0.67 195.99 0.34 196.98 0 198 C0 132.66 0 67.32 0 0 Z " fill="#115B97" transform="translate(705,184)"/>
<path d="M0 0 C0.66 0 1.32 0 2 0 C2.18325 12.60396121 2.34744568 25.2081311 2.5 37.8125 C2.51187725 38.7930687 2.5237545 39.77363739 2.53599167 40.78392029 C3.02421286 81.60615009 3.08648232 122.42555532 3.0625 163.25 C3.06207577 163.99352738 3.06165154 164.73705476 3.06121445 165.50311327 C3.05009442 184.66875416 3.02992668 203.8343786 3 223 C2.01 222.67 1.02 222.34 0 222 C0 148.74 0 75.48 0 0 Z " fill="#FECF24" transform="translate(303,596)"/>
<path d="M0 0 C0.66 0 1.32 0 2 0 C2 33 2 66 2 100 C68.33 100 134.66 100 203 100 C203 100.33 203 100.66 203 101 C136.67 101 70.34 101 2 101 C2 101.66 2 102.32 2 103 C1.34 103 0.68 103 0 103 C0 69.01 0 35.02 0 0 Z " fill="#065598" transform="translate(300,150)"/>
<path d="M0 0 C0.33 0 0.66 0 1 0 C1 104.28 1 208.56 1 316 C0.67 316 0.34 316 0 316 C0 211.72 0 107.44 0 0 Z " fill="#EBECEC" transform="translate(1023,503)"/>
<path d="M0 0 C5.94 0 11.88 0 18 0 C18 0.66 18 1.32 18 2 C7.08319986 3.43286338 -3.91803725 3.13313228 -14.90307617 3.11352539 C-17.12141926 3.11324301 -19.33976244 3.11340225 -21.55810547 3.1139679 C-27.55520496 3.11425387 -33.55228429 3.10838943 -39.54937911 3.10139394 C-45.8260753 3.09512714 -52.10277199 3.09455397 -58.37947083 3.09336853 C-68.90638553 3.09061724 -79.43329404 3.08437827 -89.96020508 3.07543945 C-100.79809533 3.0662462 -111.63598358 3.05917475 -122.47387695 3.05493164 C-123.47765302 3.05453756 -123.47765302 3.05453756 -124.5017074 3.05413551 C-127.85914644 3.05283038 -131.21658549 3.05156669 -134.57402456 3.05032361 C-162.38268816 3.0398814 -190.19134356 3.02230095 -218 3 C-218 2.67 -218 2.34 -218 2 C-146.06 2 -74.12 2 0 2 C0 1.34 0 0.68 0 0 Z " fill="#FECE21" transform="translate(612,498)"/>
<path d="M0 0 C0.33 0 0.66 0 1 0 C1 60.39 1 120.78 1 183 C0.67 183 0.34 183 0 183 C0 122.61 0 62.22 0 0 Z " fill="#ECEDED" transform="translate(0,541)"/>
<path d="M0 0 C0.33 0 0.66 0 1 0 C1 60.39 1 120.78 1 183 C0.67 183 0.34 183 0 183 C0 122.61 0 62.22 0 0 Z " fill="#ECEDED" transform="translate(1023,270)"/>
<path d="M0 0 C0.99 0 1.98 0 3 0 C3 17.49 3 34.98 3 53 C2.34 53 1.68 53 1 53 C0.67 53.99 0.34 54.98 0 56 C0 37.52 0 19.04 0 0 Z " fill="#1E6098" transform="translate(705,326)"/>
<path d="M0 0 C-0.33 6.27 -0.66 12.54 -1 19 C-1.66 19 -2.32 19 -3 19 C-3 24.28 -3 29.56 -3 35 C-3.33 34.34 -3.66 33.68 -4 33 C-4.66 33 -5.32 33 -6 33 C-6 29.37 -6 25.74 -6 22 C-5.34 22 -4.68 22 -4 22 C-4.01160156 21.23816406 -4.02320312 20.47632813 -4.03515625 19.69140625 C-4.09036343 13.37412694 -4.02342825 7.2429123 -3 1 C-1 0 -1 0 0 0 Z " fill="#3478B2" transform="translate(88,418)"/>
<path d="M0 0 C0.33 0 0.66 0 1 0 C1.33 4.95 1.66 9.9 2 15 C2.33 15 2.66 15 3 15 C3 21.27 3 27.54 3 34 C2.34 34 1.68 34 1 34 C1 40.27 1 46.54 1 53 C0.67 53 0.34 53 0 53 C0 35.51 0 18.02 0 0 Z " fill="#4284B7" transform="translate(81,456)"/>
<path d="M0 0 C0.33 0 0.66 0 1 0 C1 27.72 1 55.44 1 84 C0.67 84 0.34 84 0 84 C0 56.28 0 28.56 0 0 Z " fill="#ECEDED" transform="translate(0,725)"/>
<path d="M0 0 C0.33 0 0.66 0 1 0 C1 26.07 1 52.14 1 79 C0.67 79 0.34 79 0 79 C0 52.93 0 26.86 0 0 Z " fill="#ECEDED" transform="translate(1023,187)"/>
<path d="M0 0 C0.66 0 1.32 0 2 0 C2 8.58 2 17.16 2 26 C1.34 26 0.68 26 0 26 C-0.99259618 23.02221146 -1.12891582 21.03757049 -1.1328125 17.9296875 C-1.13410156 16.95128906 -1.13539063 15.97289062 -1.13671875 14.96484375 C-1.13285156 13.94519531 -1.12898438 12.92554688 -1.125 11.875 C-1.12886719 10.84761719 -1.13273437 9.82023437 -1.13671875 8.76171875 C-1.13542969 7.78589844 -1.13414062 6.81007813 -1.1328125 5.8046875 C-1.13168457 4.90733887 -1.13055664 4.00999023 -1.12939453 3.08544922 C-1 1 -1 1 0 0 Z " fill="#4574A9" transform="translate(503,253)"/>
<path d="M0 0 C0.33 0 0.66 0 1 0 C1 24.09 1 48.18 1 73 C0.67 73 0.34 73 0 73 C0 48.91 0 24.82 0 0 Z " fill="#ECEDED" transform="translate(0,267)"/>
<path d="M0 0 C0.33 0 0.66 0 1 0 C1 22.44 1 44.88 1 68 C0.67 68 0.34 68 0 68 C0 45.56 0 23.12 0 0 Z " fill="#ECEDED" transform="translate(0,376)"/>
<path d="M0 0 C4.95 0 9.9 0 15 0 C15 0.66 15 1.32 15 2 C21.27 2 27.54 2 34 2 C34 2.33 34 2.66 34 3 C22.12 3 10.24 3 -2 3 C-1.34 2.67 -0.68 2.34 0 2 C0 1.34 0 0.68 0 0 Z " fill="#3B7FB4" transform="translate(207,282)"/>
<path d="M0 0 C0.66 0 1.32 0 2 0 C3.2596123 4.8585046 3.14763888 9.64444663 3.125 14.625 C3.12886719 15.48351562 3.13273438 16.34203125 3.13671875 17.2265625 C3.13478516 18.4640625 3.13478516 18.4640625 3.1328125 19.7265625 C3.13168457 20.47502441 3.13055664 21.22348633 3.12939453 21.99462891 C3 24 3 24 2 27 C1.34 27 0.68 27 0 27 C0 23.37 0 19.74 0 16 C0.66 16 1.32 16 2 16 C2 14.35 2 12.7 2 11 C1.34 11 0.68 11 0 11 C0 7.37 0 3.74 0 0 Z " fill="#FECE40" transform="translate(656,788)"/>
<path d="M0 0 C0.66 0 1.32 0 2 0 C2 0.66 2 1.32 2 2 C6.62 2 11.24 2 16 2 C16 2.33 16 2.66 16 3 C10.72 3 5.44 3 0 3 C0 3.66 0 4.32 0 5 C-2.31 5.33 -4.62 5.66 -7 6 C-7 6.66 -7 7.32 -7 8 C-8.98 8.33 -10.96 8.66 -13 9 C-13 9.66 -13 10.32 -13 11 C-13.66 11 -14.32 11 -15 11 C-15 10.01 -15 9.02 -15 8 C-14.01 8 -13.02 8 -12 8 C-12 7.34 -12 6.68 -12 6 C-10.35 5.67 -8.7 5.34 -7 5 C-7 4.34 -7 3.68 -7 3 C-3.535 2.505 -3.535 2.505 0 2 C0 1.34 0 0.68 0 0 Z " fill="#5E91BD" transform="translate(378,123)"/>
<path d="M0 0 C0.66 0 1.32 0 2 0 C2 2.97 2 5.94 2 9 C1.34 9 0.68 9 0 9 C0 11.31 0 13.62 0 16 C0.66 16 1.32 16 2 16 C2 19.63 2 23.26 2 27 C1.34 27 0.68 27 0 27 C-1.17576148 24.64847704 -1.12909897 23.22483241 -1.1328125 20.60546875 C-1.13410156 19.73212891 -1.13539063 18.85878906 -1.13671875 17.95898438 C-1.13285156 17.04439453 -1.12898437 16.12980469 -1.125 15.1875 C-1.12886719 14.28451172 -1.13273438 13.38152344 -1.13671875 12.45117188 C-1.13044206 8.17988135 -1.09902144 4.16058118 0 0 Z " fill="#FCCF46" transform="translate(584,788)"/>
<path d="M0 0 C7.26 0 14.52 0 22 0 C22 0.66 22 1.32 22 2 C18.48821216 3.08187107 15.22447434 3.13346699 11.5625 3.125 C10.45003906 3.12757813 9.33757813 3.13015625 8.19140625 3.1328125 C5.33622508 3.01399223 2.77492054 2.65353269 0 2 C0 1.34 0 0.68 0 0 Z " fill="#FECB35" transform="translate(609,838)"/>
<path d="M0 0 C0.33 0 0.66 0 1 0 C1 5.28 1 10.56 1 16 C1.66 16 2.32 16 3 16 C3 16.99 3 17.98 3 19 C2.34 19 1.68 19 1 19 C1 21.64 1 24.28 1 27 C0.67 27 0.34 27 0 27 C0 22.38 0 17.76 0 13 C-0.66 13 -1.32 13 -2 13 C-2 9.37 -2 5.74 -2 2 C-1.34 2 -0.68 2 0 2 C0 1.34 0 0.68 0 0 Z " fill="#4281B5" transform="translate(84,513)"/>
<path d="M0 0 C-0.99 0.33 -1.98 0.66 -3 1 C-3 1.66 -3 2.32 -3 3 C-4.98 3.33 -6.96 3.66 -9 4 C-9 4.66 -9 5.32 -9 6 C-9.99 6.33 -10.98 6.66 -12 7 C-12.33 7.66 -12.66 8.32 -13 9 C-15.5625 9.625 -15.5625 9.625 -18 10 C-18 10.66 -18 11.32 -18 12 C-18.99 12 -19.98 12 -21 12 C-21 11.01 -21 10.02 -21 9 C-20.01 9 -19.02 9 -18 9 C-18 8.34 -18 7.68 -18 7 C-16.35 6.67 -14.7 6.34 -13 6 C-13 5.34 -13 4.68 -13 4 C-11.35 3.67 -9.7 3.34 -8 3 C-8 2.34 -8 1.68 -8 1 C-5.07175348 0.02391783 -3.04386724 -0.08226668 0 0 Z " fill="#3773A9" transform="translate(346,481)"/>
<path d="M0 0 C7.92 0 15.84 0 24 0 C24 0.66 24 1.32 24 2 C19.04515817 3.38489368 14.25410852 2.89120615 9.1875 2.5625 C7.86202148 2.48418945 7.86202148 2.48418945 6.50976562 2.40429688 C4.33949592 2.27525381 2.16969307 2.13840044 0 2 C0 1.34 0 0.68 0 0 Z " fill="#0962A5" transform="translate(222,282)"/>
<path d="M0 0 C0.33 0.66 0.66 1.32 1 2 C1.66 2.33 2.32 2.66 3 3 C2.01 3 1.02 3 0 3 C0 3.66 0 4.32 0 5 C-1.41538717 5.33872513 -2.83237963 5.67074624 -4.25 6 C-5.03890625 6.185625 -5.8278125 6.37125 -6.640625 6.5625 C-9 7 -9 7 -13 7 C-13 7.66 -13 8.32 -13 9 C-14.65 9 -16.3 9 -18 9 C-18 8.34 -18 7.68 -18 7 C-14.17010894 5.19769832 -11.21878192 4.80377759 -7 5 C-7 4.34 -7 3.68 -7 3 C-3.535 2.505 -3.535 2.505 0 2 C0 1.34 0 0.68 0 0 Z " fill="#FDD04D" transform="translate(852,669)"/>
<path d="M0 0 C0.33 0 0.66 0 1 0 C1 2.64 1 5.28 1 8 C1.66 8 2.32 8 3 8 C3 8.99 3 9.98 3 11 C2.34 11 1.68 11 1 11 C0.67 15.62 0.34 20.24 0 25 C-0.66 24.67 -1.32 24.34 -2 24 C-2 20.04 -2 16.08 -2 12 C-1.34 12 -0.68 12 0 12 C0 8.04 0 4.08 0 0 Z " fill="#FED74C" transform="translate(736,376)"/>
<path d="M0 0 C0.66 0 1.32 0 2 0 C2 0.66 2 1.32 2 2 C7.28 2 12.56 2 18 2 C16.68 2.33 15.36 2.66 14 3 C14 3.66 14 4.32 14 5 C11.03 5 8.06 5 5 5 C5 4.34 5 3.68 5 3 C1.04 3 -2.92 3 -7 3 C-7 2.67 -7 2.34 -7 2 C-4.69 2 -2.38 2 0 2 C0 1.34 0 0.68 0 0 Z " fill="#FDD24A" transform="translate(444,900)"/>
<path d="M0 0 C0.33 0 0.66 0 1 0 C1 15.51 1 31.02 1 47 C0.67 47 0.34 47 0 47 C0 31.49 0 15.98 0 0 Z " fill="#EBECEC" transform="translate(1023,454)"/>
<path d="M0 0 C0.33 0.66 0.66 1.32 1 2 C1.99 2.33 2.98 2.66 4 3 C4 3.66 4 4.32 4 5 C4.99 5.33 5.98 5.66 7 6 C7 6.66 7 7.32 7 8 C7.99 8.33 8.98 8.66 10 9 C10 9.66 10 10.32 10 11 C10.99 11.33 11.98 11.66 13 12 C13 12.66 13 13.32 13 14 C13.99 14.33 14.98 14.66 16 15 C15.01 15.33 14.02 15.66 13 16 C7.44444444 11.88888889 7.44444444 11.88888889 6 9 C5.01 8.67 4.02 8.34 3 8 C3 7.01 3 6.02 3 5 C2.34 5 1.68 5 1 5 C0.67 3.35 0.34 1.7 0 0 Z " fill="#EAEBEB" transform="translate(53,941)"/>
<path d="M0 0 C4.29 0 8.58 0 13 0 C13 0.66 13 1.32 13 2 C13.99 2.33 14.98 2.66 16 3 C9.4 3 2.8 3 -4 3 C-2.68 2.67 -1.36 2.34 0 2 C0 1.34 0 0.68 0 0 Z " fill="#FEC418" transform="translate(615,763)"/>
<path d="M0 0 C0.99 0.33 1.98 0.66 3 1 C2.67 1.66 2.34 2.32 2 3 C1.34 3 0.68 3 0 3 C-0.33 3.99 -0.66 4.98 -1 6 C-1.66 6 -2.32 6 -3 6 C-3.33 6.99 -3.66 7.98 -4 9 C-4.66 9 -5.32 9 -6 9 C-6.33 9.99 -6.66 10.98 -7 12 C-7.66 12 -8.32 12 -9 12 C-9 12.66 -9 13.32 -9 14 C-9.99 14 -10.98 14 -12 14 C-12 13.01 -12 12.02 -12 11 C-11.01 11 -10.02 11 -9 11 C-9 10.34 -9 9.68 -9 9 C-7.33784732 7.66104368 -5.67036393 6.32869858 -4 5 C-2.62631655 3.36643049 -1.28062485 1.7074998 0 0 Z " fill="#FDCF2C" transform="translate(703,457)"/>
<path d="M0 0 C8.25 0 16.5 0 25 0 C25 0.33 25 0.66 25 1 C23.92878906 1.06058594 22.85757813 1.12117188 21.75390625 1.18359375 C20.35675609 1.26798537 18.95962143 1.35263406 17.5625 1.4375 C16.50192383 1.49647461 16.50192383 1.49647461 15.41992188 1.55664062 C11.91309581 1.47624438 11.91309581 1.47624438 9 3 C7.48071962 3.07179964 5.95832518 3.08392007 4.4375 3.0625 C3.61121094 3.05347656 2.78492188 3.04445312 1.93359375 3.03515625 C1.29550781 3.02355469 0.65742187 3.01195312 0 3 C0 2.01 0 1.02 0 0 Z " fill="#3E7FB2" transform="translate(512,60)"/>
<path d="M0 0 C1.32 0.33 2.64 0.66 4 1 C4 1.66 4 2.32 4 3 C5.65 3.33 7.3 3.66 9 4 C9 4.66 9 5.32 9 6 C10.32 6.33 11.64 6.66 13 7 C13 7.66 13 8.32 13 9 C14.65 9.33 16.3 9.66 18 10 C18 10.66 18 11.32 18 12 C17.01 12 16.02 12 15 12 C15 11.34 15 10.68 15 10 C12.03 9.505 12.03 9.505 9 9 C9 8.34 9 7.68 9 7 C8.01 6.67 7.02 6.34 6 6 C6 5.34 6 4.68 6 4 C4.35 3.67 2.7 3.34 1 3 C0.67 2.01 0.34 1.02 0 0 Z " fill="#EAEAEA" transform="translate(78,965)"/>
<path d="M0 0 C0.66 0.66 1.32 1.32 2 2 C1.34 3.32 0.68 4.64 0 6 C-0.66 6 -1.32 6 -2 6 C-2.33 7.32 -2.66 8.64 -3 10 C-3.66 10 -4.32 10 -5 10 C-4.67 10.99 -4.34 11.98 -4 13 C-4.99 13.495 -4.99 13.495 -6 14 C-6 13.34 -6 12.68 -6 12 C-6.66 12 -7.32 12 -8 12 C-8 11.34 -8 10.68 -8 10 C-7.34 10 -6.68 10 -6 10 C-5.67 8.68 -5.34 7.36 -5 6 C-4.34 6 -3.68 6 -3 6 C-2.814375 4.7934375 -2.814375 4.7934375 -2.625 3.5625 C-2.41875 2.716875 -2.2125 1.87125 -2 1 C-1.34 0.67 -0.68 0.34 0 0 Z " fill="#4080B7" transform="translate(121,328)"/>
<path d="M0 0 C1.98 0 3.96 0 6 0 C5.67 0.99 5.34 1.98 5 3 C3.35 3 1.7 3 0 3 C0 3.66 0 4.32 0 5 C-1.28745036 5.38922918 -2.58019597 5.76098036 -3.875 6.125 C-4.95394531 6.43824219 -4.95394531 6.43824219 -6.0546875 6.7578125 C-6.69664062 6.83773437 -7.33859375 6.91765625 -8 7 C-8.66 6.34 -9.32 5.68 -10 5 C-9.01 5 -8.02 5 -7 5 C-7 4.34 -7 3.68 -7 3 C-3.535 2.505 -3.535 2.505 0 2 C0 1.34 0 0.68 0 0 Z " fill="#407DB4" transform="translate(363,79)"/>
<path d="M0 0 C0.02703381 1.93742341 0.04641125 3.87495479 0.0625 5.8125 C0.07410156 6.89144531 0.08570313 7.97039063 0.09765625 9.08203125 C0 12 0 12 -1 15 C-1.66 15 -2.32 15 -3 15 C-3 10.38 -3 5.76 -3 1 C-1 0 -1 0 0 0 Z " fill="#FDDB55" transform="translate(306,581)"/>
<path d="M0 0 C0.33 0 0.66 0 1 0 C1 5.28 1 10.56 1 16 C0.67 15.34 0.34 14.68 0 14 C-0.66 14 -1.32 14 -2 14 C-2 10.37 -2 6.74 -2 3 C-1.34 3 -0.68 3 0 3 C0 2.01 0 1.02 0 0 Z " fill="#4685B8" transform="translate(84,437)"/>
<path d="M0 0 C5.28 0 10.56 0 16 0 C16 0.66 16 1.32 16 2 C17.32 2.33 18.64 2.66 20 3 C13.4 2.67 6.8 2.34 0 2 C0 1.34 0 0.68 0 0 Z " fill="#055096" transform="translate(380,123)"/>
<path d="M0 0 C2.64 0 5.28 0 8 0 C8 0.66 8 1.32 8 2 C6.35 2.33 4.7 2.66 3 3 C3 3.66 3 4.32 3 5 C1.02 5 -0.96 5 -3 5 C-3 4.01 -3 3.02 -3 2 C-2.01 2 -1.02 2 0 2 C0 1.34 0 0.68 0 0 Z " fill="#FDC220" transform="translate(653,875)"/>
<path d="M0 0 C0.66 0 1.32 0 2 0 C2 0.66 2 1.32 2 2 C4.31 2.33 6.62 2.66 9 3 C9 3.66 9 4.32 9 5 C10.65 5 12.3 5 14 5 C14 5.33 14 5.66 14 6 C4.58997722 6.18451025 4.58997722 6.18451025 0 5 C0 3.35 0 1.7 0 0 Z " fill="#FCD050" transform="translate(600,832)"/>
<path d="M0 0 C1.98 0 3.96 0 6 0 C6 0.66 6 1.32 6 2 C6.66 2.33 7.32 2.66 8 3 C7.01 3 6.02 3 5 3 C5 3.66 5 4.32 5 5 C3.02 5 1.04 5 -1 5 C-1 4.34 -1 3.68 -1 3 C-1.66 2.67 -2.32 2.34 -3 2 C-2.01 2 -1.02 2 0 2 C0 1.34 0 0.68 0 0 Z " fill="#376FA1" transform="translate(619,463)"/>
<path d="M0 0 C0.99 0 1.98 0 3 0 C3 1.98 3 3.96 3 6 C2.34 6 1.68 6 1 6 C1 8.97 1 11.94 1 15 C0.67 15 0.34 15 0 15 C0 13.35 0 11.7 0 10 C-0.66 10 -1.32 10 -2 10 C-2 9.01 -2 8.02 -2 7 C-1.34 7 -0.68 7 0 7 C0 4.69 0 2.38 0 0 Z " fill="#4D85B2" transform="translate(274,566)"/>
<path d="M0 0 C0.33 0 0.66 0 1 0 C1 10.89 1 21.78 1 33 C0.67 33 0.34 33 0 33 C0 22.11 0 11.22 0 0 Z " fill="#ECECED" transform="translate(0,445)"/>
<path d="M0 0 C0.99 0.33 1.98 0.66 3 1 C3 2.98 3 4.96 3 7 C2.34 7 1.68 7 1 7 C0.67 8.65 0.34 10.3 0 12 C-0.66 12 -1.32 12 -2 12 C-2 10.35 -2 8.7 -2 7 C-1.34 7 -0.68 7 0 7 C0 4.69 0 2.38 0 0 Z " fill="#FDC82D" transform="translate(911,600)"/>
<path d="M0 0 C0.99 0.33 1.98 0.66 3 1 C3 3.31 3 5.62 3 8 C2.34 8 1.68 8 1 8 C1 10.64 1 13.28 1 16 C0.67 16 0.34 16 0 16 C0 14.35 0 12.7 0 11 C-0.66 10.67 -1.32 10.34 -2 10 C-1.34 10 -0.68 10 0 10 C0 6.7 0 3.4 0 0 Z " fill="#FED251" transform="translate(927,540)"/>
<path d="M0 0 C0.99 0 1.98 0 3 0 C3 0.66 3 1.32 3 2 C3.66 2 4.32 2 5 2 C5 3.65 5 5.3 5 7 C4.34 7 3.68 7 3 7 C3 8.65 3 10.3 3 12 C2.67 11.01 2.34 10.02 2 9 C1.34 9 0.68 9 0 9 C0 8.01 0 7.02 0 6 C0.66 6 1.32 6 2 6 C2 4.68 2 3.36 2 2 C1.34 2 0.68 2 0 2 C0 1.34 0 0.68 0 0 Z " fill="#437AAA" transform="translate(700,388)"/>
<path d="M0 0 C0.66 0 1.32 0 2 0 C2.33 1.98 2.66 3.96 3 6 C3.66 6 4.32 6 5 6 C5 7.98 5 9.96 5 12 C4.34 12 3.68 12 3 12 C2.67 10.02 2.34 8.04 2 6 C1.34 6 0.68 6 0 6 C0 4.02 0 2.04 0 0 Z " fill="#FDCC28" transform="translate(912,363)"/>
<path d="M0 0 C0.66 0 1.32 0 2 0 C2.33 1.65 2.66 3.3 3 5 C3.66 5 4.32 5 5 5 C5.33 7.31 5.66 9.62 6 12 C5.01 11.67 4.02 11.34 3 11 C2.87625 10.195625 2.7525 9.39125 2.625 8.5625 C2.315625 7.2940625 2.315625 7.2940625 2 6 C1.34 5.67 0.68 5.34 0 5 C-0.6875 3 -0.6875 3 -1 1 C-0.67 0.67 -0.34 0.34 0 0 Z " fill="#165C99" transform="translate(694,123)"/>
<path d="M0 0 C0 0.66 0 1.32 0 2 C1.32 2.33 2.64 2.66 4 3 C1.69 3 -0.62 3 -3 3 C-3 3.66 -3 4.32 -3 5 C-4.98 5 -6.96 5 -9 5 C-9 4.01 -9 3.02 -9 2 C-2.25 0 -2.25 0 0 0 Z " fill="#FCCD43" transform="translate(593,897)"/>
<path d="M0 0 C0.33 0 0.66 0 1 0 C1 1.65 1 3.3 1 5 C1.66 5 2.32 5 3 5 C3 8.63 3 12.26 3 16 C2.34 16 1.68 16 1 16 C0.67 10.72 0.34 5.44 0 0 Z " fill="#FED962" transform="translate(930,510)"/>
<path d="M0 0 C1.65 0 3.3 0 5 0 C5 0.66 5 1.32 5 2 C3.35 2.33 1.7 2.66 0 3 C0 3.66 0 4.32 0 5 C-2.31 5 -4.62 5 -7 5 C-7 4.34 -7 3.68 -7 3 C-3.535 2.505 -3.535 2.505 0 2 C0 1.34 0 0.68 0 0 Z " fill="#195792" transform="translate(644,457)"/>
<path d="M0 0 C0.66 0 1.32 0 2 0 C2 3.96 2 7.92 2 12 C1.34 12 0.68 12 0 12 C-0.33 12.99 -0.66 13.98 -1 15 C-0.67 10.05 -0.34 5.1 0 0 Z " fill="#FED85F" transform="translate(931,447)"/>
<path d="M0 0 C0.33 0.99 0.66 1.98 1 3 C0.01 4.485 0.01 4.485 -1 6 C-1.66 6 -2.32 6 -3 6 C-3.33 7.65 -3.66 9.3 -4 11 C-4.99 11 -5.98 11 -7 11 C-6.69894935 7.38739215 -6.29131912 6.25490423 -3.5 3.8125 C-2.675 3.214375 -1.85 2.61625 -1 2 C-0.67 1.34 -0.34 0.68 0 0 Z " fill="#EAEBEB" transform="translate(974,935)"/>
<path d="M0 0 C0.33 0.66 0.66 1.32 1 2 C3.30710878 2.59896093 5.61688718 2.95654965 7.96875 3.33984375 C8.6390625 3.55769531 9.309375 3.77554688 10 4 C10.33 4.99 10.66 5.98 11 7 C8.69 6.67 6.38 6.34 4 6 C4 5.34 4 4.68 4 4 C1.03 3.505 1.03 3.505 -2 3 C-1.34 2.67 -0.68 2.34 0 2 C0 1.34 0 0.68 0 0 Z " fill="#FDD454" transform="translate(362,878)"/>
<path d="M0 0 C1.65 0 3.3 0 5 0 C5 0.66 5 1.32 5 2 C7.97 2.495 7.97 2.495 11 3 C11 3.66 11 4.32 11 5 C9.02 5 7.04 5 5 5 C5 4.34 5 3.68 5 3 C3.35 2.67 1.7 2.34 0 2 C0 1.34 0 0.68 0 0 Z " fill="#1D619D" transform="translate(157,679)"/>
<path d="M0 0 C0.66 0 1.32 0 2 0 C2 0.99 2 1.98 2 3 C1.34 3 0.68 3 0 3 C-0.33 3.99 -0.66 4.98 -1 6 C-3.375 8.25 -3.375 8.25 -6 10 C-6.99 9.67 -7.98 9.34 -9 9 C-8.34 9 -7.68 9 -7 9 C-6.67 8.01 -6.34 7.02 -6 6 C-4.35360035 4.64172029 -2.68704193 3.30745749 -1 2 C-0.67 1.34 -0.34 0.68 0 0 Z " fill="#FEBF10" transform="translate(887,644)"/>
<path d="M0 0 C0.93423645 3.01031744 1.04449911 3.86650268 0 7 C-0.99 7.495 -0.99 7.495 -2 8 C-2.33 8.99 -2.66 9.98 -3 11 C-3.66 11 -4.32 11 -5 11 C-5 9.68 -5 8.36 -5 7 C-4.34 7 -3.68 7 -3 7 C-2.87625 6.030625 -2.7525 5.06125 -2.625 4.0625 C-2.41875 3.051875 -2.2125 2.04125 -2 1 C-1.34 0.67 -0.68 0.34 0 0 Z " fill="#FDCF4B" transform="translate(902,624)"/>
<path d="M0 0 C0.99 0 1.98 0 3 0 C3 1.98 3 3.96 3 6 C2.34 6 1.68 6 1 6 C1 8.64 1 11.28 1 14 C0.67 14 0.34 14 0 14 C0 12.35 0 10.7 0 9 C-0.66 8.67 -1.32 8.34 -2 8 C-1.34 8 -0.68 8 0 8 C0 5.36 0 2.72 0 0 Z " fill="#FDD14F" transform="translate(924,557)"/>
<path d="M0 0 C0.66 0 1.32 0 2 0 C2 0.99 2 1.98 2 3 C1.01 3 0.02 3 -1 3 C-1 3.66 -1 4.32 -1 5 C-6.75 8 -6.75 8 -9 8 C-9 6 -9 6 -7.875 4.4375 C-5.36053022 2.50973984 -3.10454033 2.34494893 0 2 C0 1.34 0 0.68 0 0 Z " fill="#FDDA56" transform="translate(350,513)"/>
<path d="M0 0 C0.66 0 1.32 0 2 0 C2 1.98 2 3.96 2 6 C1.34 6 0.68 6 0 6 C0 10.62 0 15.24 0 20 C-0.33 20 -0.66 20 -1 20 C-1.02703562 17.41659616 -1.04685611 14.83347692 -1.0625 12.25 C-1.07087891 11.52039063 -1.07925781 10.79078125 -1.08789062 10.0390625 C-1.10391684 6.51329442 -0.95292713 3.38965084 0 0 Z " fill="#09579B" transform="translate(350,150)"/>
<path d="M0 0 C1.98 0 3.96 0 6 0 C6 0.66 6 1.32 6 2 C4.35 2.33 2.7 2.66 1 3 C1 3.66 1 4.32 1 5 C0.01 5 -0.98 5 -2 5 C-2 4.34 -2 3.68 -2 3 C-2.99 2.67 -3.98 2.34 -5 2 C-3.35 2 -1.7 2 0 2 C0 1.34 0 0.68 0 0 Z " fill="#FDCF4C" transform="translate(633,835)"/>
<path d="M0 0 C1.65 0 3.3 0 5 0 C5 0.99 5 1.98 5 3 C4.34 3 3.68 3 3 3 C3 5.64 3 8.28 3 11 C2.67 11 2.34 11 2 11 C2 9.02 2 7.04 2 5 C1.34 5 0.68 5 0 5 C0 3.35 0 1.7 0 0 Z " fill="#538CBA" transform="translate(91,573)"/>
<path d="M0 0 C1.98 0 3.96 0 6 0 C5.67 0.99 5.34 1.98 5 3 C0.05 3 -4.9 3 -10 3 C-10 2.67 -10 2.34 -10 2 C-6.7 2 -3.4 2 0 2 C0 1.34 0 0.68 0 0 Z " fill="#0D5594" transform="translate(394,466)"/>
<path d="M0 0 C0.33 0.66 0.66 1.32 1 2 C1.66 2.33 2.32 2.66 3 3 C2.01 3 1.02 3 0 3 C0 3.66 0 4.32 0 5 C-1.98 5.33 -3.96 5.66 -6 6 C-6 6.66 -6 7.32 -6 8 C-6.66 8 -7.32 8 -8 8 C-8 7.01 -8 6.02 -8 5 C-7.01 5 -6.02 5 -5 5 C-5 4.34 -5 3.68 -5 3 C-3.35 2.67 -1.7 2.34 0 2 C0 1.34 0 0.68 0 0 Z " fill="#4D87B8" transform="translate(371,126)"/>
<path d="M0 0 C3.96 0 7.92 0 12 0 C12 0.99 12 1.98 12 3 C8.04 2.67 4.08 2.34 0 2 C0 1.34 0 0.68 0 0 Z " fill="#6395C1" transform="translate(443,61)"/>
<path d="M0 0 C4.29 0.33 8.58 0.66 13 1 C13 1.66 13 2.32 13 3 C9.7 3 6.4 3 3 3 C3 2.34 3 1.68 3 1 C2.01 0.67 1.02 0.34 0 0 Z " fill="#FDD65E" transform="translate(812,678)"/>
<path d="M0 0 C0.33 1.32 0.66 2.64 1 4 C1.66 4 2.32 4 3 4 C3 4.66 3 5.32 3 6 C2.34 6 1.68 6 1 6 C1 7.98 1 9.96 1 12 C0.01 12 -0.98 12 -2 12 C-2 10.35 -2 8.7 -2 7 C-1.34 7 -0.68 7 0 7 C0 4.69 0 2.38 0 0 Z " fill="#4988BC" transform="translate(90,397)"/>
<path d="M0 0 C0.33 1.32 0.66 2.64 1 4 C0.01 4 -0.98 4 -2 4 C-2 4.99 -2 5.98 -2 7 C-4.64738916 8.4606285 -5.89448334 9 -9 9 C-9 8.34 -9 7.68 -9 7 C-8.01 6.67 -7.02 6.34 -6 6 C-5.319375 5.319375 -4.63875 4.63875 -3.9375 3.9375 C-3.298125 3.298125 -2.65875 2.65875 -2 2 C-1.34 2 -0.68 2 0 2 C0 1.34 0 0.68 0 0 Z " fill="#77A3C8" transform="translate(415,185)"/>
<path d="M0 0 C0.99 0 1.98 0 3 0 C3 0.66 3 1.32 3 2 C5.31 2.33 7.62 2.66 10 3 C10 3.66 10 4.32 10 5 C7.69 5 5.38 5 3 5 C3 4.34 3 3.68 3 3 C2.01 3 1.02 3 0 3 C0 2.01 0 1.02 0 0 Z " fill="#447EB0" transform="translate(634,79)"/>
<path d="M0 0 C0.33 0 0.66 0 1 0 C1 8.25 1 16.5 1 25 C0.67 25 0.34 25 0 25 C0 16.75 0 8.5 0 0 Z " fill="#ECEDED" transform="translate(0,500)"/>
<path d="M0 0 C0.33 0 0.66 0 1 0 C1 1.98 1 3.96 1 6 C1.66 6 2.32 6 3 6 C3 7.98 3 9.96 3 12 C2.01 12 1.02 12 0 12 C-0.76173392 7.6835078 -1.16063604 4.25566547 0 0 Z " fill="#FEDC66" transform="translate(921,388)"/>
<path d="M0 0 C0.33 0 0.66 0 1 0 C1 8.25 1 16.5 1 25 C0.67 25 0.34 25 0 25 C0 16.75 0 8.5 0 0 Z " fill="#EDEDED" transform="translate(0,241)"/>
<path d="M0 0 C0.33 0 0.66 0 1 0 C1 8.25 1 16.5 1 25 C0.67 25 0.34 25 0 25 C0 16.75 0 8.5 0 0 Z " fill="#EDEEED" transform="translate(0,182)"/>
<path d="M0 0 C0.66 0 1.32 0 2 0 C2 0.66 2 1.32 2 2 C3.32 2.33 4.64 2.66 6 3 C6 3.66 6 4.32 6 5 C6.99 5.33 7.98 5.66 9 6 C9 6.66 9 7.32 9 8 C6 8 6 8 4.3125 6.625 C3 5 3 5 3 3 C2.01 3 1.02 3 0 3 C0 2.01 0 1.02 0 0 Z " fill="#EAEAEA" transform="translate(69,957)"/>
<path d="M0 0 C3.96 0.33 7.92 0.66 12 1 C12 1.66 12 2.32 12 3 C9.03 3 6.06 3 3 3 C3 2.34 3 1.68 3 1 C2.01 0.67 1.02 0.34 0 0 Z " fill="#FDD865" transform="translate(562,902)"/>
<path d="M0 0 C0.66 0 1.32 0 2 0 C3.28571429 7.42857143 3.28571429 7.42857143 2 11 C1.34 11 0.68 11 0 11 C0 7.37 0 3.74 0 0 Z " fill="#FBD452" transform="translate(656,788)"/>
<path d="M0 0 C0.99 0 1.98 0 3 0 C3 0.66 3 1.32 3 2 C2.01 2.495 2.01 2.495 1 3 C0.67 3.99 0.34 4.98 0 6 C-2.0625 7.6875 -2.0625 7.6875 -4 9 C-4 7.35 -4 5.7 -4 4 C-2.68 3.34 -1.36 2.68 0 2 C0 1.34 0 0.68 0 0 Z " fill="#FED54D" transform="translate(593,775)"/>
<path d="M0 0 C0.99 0 1.98 0 3 0 C3 0.66 3 1.32 3 2 C3.66 2 4.32 2 5 2 C5.33 3.98 5.66 5.96 6 8 C5.01 8 4.02 8 3 8 C2.67 6.02 2.34 4.04 2 2 C1.34 2 0.68 2 0 2 C0 1.34 0 0.68 0 0 Z " fill="#5486B6" transform="translate(110,629)"/>
<path d="M0 0 C-0.99 0.33 -1.98 0.66 -3 1 C-3 1.66 -3 2.32 -3 3 C-4.98 3.33 -6.96 3.66 -9 4 C-9 4.66 -9 5.32 -9 6 C-9.66 6 -10.32 6 -11 6 C-11 5.01 -11 4.02 -11 3 C-10.01 3 -9.02 3 -8 3 C-8 2.34 -8 1.68 -8 1 C-5.07175348 0.02391783 -3.04386724 -0.08226668 0 0 Z " fill="#457FAF" transform="translate(346,481)"/>
<path d="M0 0 C0.99 0 1.98 0 3 0 C3 0.66 3 1.32 3 2 C3.66 2 4.32 2 5 2 C5.33 1.34 5.66 0.68 6 0 C6 0.66 6 1.32 6 2 C7.65 2 9.3 2 11 2 C11 2.33 11 2.66 11 3 C5.06 3.495 5.06 3.495 -1 4 C-0.67 2.68 -0.34 1.36 0 0 Z " fill="#437EB0" transform="translate(369,469)"/>
<path d="M0 0 C0.33 0 0.66 0 1 0 C1 1.65 1 3.3 1 5 C1.66 5 2.32 5 3 5 C3 6.32 3 7.64 3 9 C2.01 9.33 1.02 9.66 0 10 C0 8.35 0 6.7 0 5 C-0.66 5 -1.32 5 -2 5 C-2 4.01 -2 3.02 -2 2 C-1.34 2 -0.68 2 0 2 C0 1.34 0 0.68 0 0 Z " fill="#FED64A" transform="translate(917,373)"/>
<path d="M0 0 C0.66 0 1.32 0 2 0 C2.84454356 3.37817425 3.10844919 5.67465243 2 9 C1.01 9 0.02 9 -1 9 C-0.67 6.03 -0.34 3.06 0 0 Z " fill="#4885B7" transform="translate(303,132)"/>
<path d="M0 0 C2.97 0.495 2.97 0.495 6 1 C6 1.66 6 2.32 6 3 C7.32 3.33 8.64 3.66 10 4 C10 4.66 10 5.32 10 6 C9.01 6 8.02 6 7 6 C7 5.34 7 4.68 7 4 C4.03 3.505 4.03 3.505 1 3 C0.67 2.01 0.34 1.02 0 0 Z " fill="#E8E9E9" transform="translate(96,977)"/>
<path d="M0 0 C2.31 0 4.62 0 7 0 C7 0.66 7 1.32 7 2 C4.00519083 2.8723412 1.36424089 3.10829766 -1.75 3.0625 C-2.54921875 3.05347656 -3.3484375 3.04445313 -4.171875 3.03515625 C-4.77515625 3.02355469 -5.3784375 3.01195312 -6 3 C-6 2.67 -6 2.34 -6 2 C-4.02 2 -2.04 2 0 2 C0 1.34 0 0.68 0 0 Z " fill="#FEC113" transform="translate(624,838)"/>
<path d="M0 0 C0.99 0 1.98 0 3 0 C2.67 1.98 2.34 3.96 2 6 C0.35 6.33 -1.3 6.66 -3 7 C-3 6.34 -3 5.68 -3 5 C-2.34 5 -1.68 5 -1 5 C-0.67 3.35 -0.34 1.7 0 0 Z " fill="#FEDA57" transform="translate(319,541)"/>
<path d="M0 0 C0.33 0.99 0.66 1.98 1 3 C1.66 3 2.32 3 3 3 C3 4.65 3 6.3 3 8 C2.01 8.495 2.01 8.495 1 9 C0.01 8.67 -0.98 8.34 -2 8 C-2 7.01 -2 6.02 -2 5 C-1.34 5 -0.68 5 0 5 C0 3.35 0 1.7 0 0 Z " fill="#528FBE" transform="translate(96,376)"/>
<path d="M0 0 C1.65 0 3.3 0 5 0 C5 0.66 5 1.32 5 2 C4.34 2 3.68 2 3 2 C3 2.66 3 3.32 3 4 C1.02 4 -0.96 4 -3 4 C-3 3.34 -3 2.68 -3 2 C-2.01 2 -1.02 2 0 2 C0 1.34 0 0.68 0 0 Z " fill="#FEC222" transform="translate(644,880)"/>
<path d="M0 0 C0.99 0 1.98 0 3 0 C3 1.65 3 3.3 3 5 C2.34 5 1.68 5 1 5 C1 6.65 1 8.3 1 10 C-1.56687367 6.1496895 -0.83288724 4.41430237 0 0 Z " fill="#FED75B" transform="translate(921,571)"/>
<path d="M0 0 C0.99 0 1.98 0 3 0 C3 0.66 3 1.32 3 2 C3.99 2.33 4.98 2.66 6 3 C6 3.66 6 4.32 6 5 C6.66 5 7.32 5 8 5 C8 5.99 8 6.98 8 8 C7.34 8 6.68 8 6 8 C4.64613064 6.34997172 3.31321858 4.6825613 2 3 C1.34 2.67 0.68 2.34 0 2 C0 1.34 0 0.68 0 0 Z " fill="#FECA1C" transform="translate(875,301)"/>
<path d="M0 0 C1.98 0 3.96 0 6 0 C6 0.66 6 1.32 6 2 C8.64 2 11.28 2 14 2 C14 2.33 14 2.66 14 3 C12.41676312 3.027193 10.83338938 3.04648306 9.25 3.0625 C7.92742187 3.07990234 7.92742187 3.07990234 6.578125 3.09765625 C4.2181162 3.00826198 2.25501476 2.66912821 0 2 C0 1.34 0 0.68 0 0 Z " fill="#08589A" transform="translate(377,198)"/>
<path d="M0 0 C0 0.66 0 1.32 0 2 C-1.32 2 -2.64 2 -4 2 C-4 2.66 -4 3.32 -4 4 C-5.65 4 -7.3 4 -9 4 C-9 3.34 -9 2.68 -9 2 C-5.62902617 0.50178941 -3.79557881 0 0 0 Z " fill="#FED763" transform="translate(843,674)"/>
<path d="M0 0 C1.32 0 2.64 0 4 0 C4 0.99 4 1.98 4 3 C-2.4 4.23076923 -2.4 4.23076923 -5.4375 3.0625 C-5.953125 2.711875 -6.46875 2.36125 -7 2 C-4.69 2 -2.38 2 0 2 C0 1.34 0 0.68 0 0 Z " fill="#FEDB5E" transform="translate(640,494)"/>
<path d="M0 0 C0 0.66 0 1.32 0 2 C-1.2065625 2.433125 -1.2065625 2.433125 -2.4375 2.875 C-5.1326468 3.73262568 -5.1326468 3.73262568 -6 6 C-6.66 6 -7.32 6 -8 6 C-8 3 -8 3 -6.8125 1.3125 C-4.44258278 -0.40364695 -2.85974334 -0.23187108 0 0 Z " fill="#407BAE" transform="translate(324,494)"/>
<path d="M0 0 C1.98 0 3.96 0 6 0 C5.67 0.99 5.34 1.98 5 3 C2.125 3.625 2.125 3.625 -1 4 C-1.66 3.34 -2.32 2.68 -3 2 C-2.01 2 -1.02 2 0 2 C0 1.34 0 0.68 0 0 Z " fill="#4E8BBC" transform="translate(166,292)"/>
<path d="M0 0 C2.97 0 5.94 0 9 0 C9 0.66 9 1.32 9 2 C2.25 3.125 2.25 3.125 0 2 C0 1.34 0 0.68 0 0 Z " fill="#5088B8" transform="translate(569,64)"/>
<path d="M0 0 C0.33 0 0.66 0 1 0 C0.67 2.64 0.34 5.28 0 8 C-0.66 8 -1.32 8 -2 8 C-2.33 8.99 -2.66 9.98 -3 11 C-2.67 8.36 -2.34 5.72 -2 3 C-1.34 3 -0.68 3 0 3 C0 2.01 0 1.02 0 0 Z " fill="#ECEDEC" transform="translate(1005,885)"/>
<path d="M0 0 C0.66 0 1.32 0 2 0 C2.36458333 4.49652778 2.36458333 4.49652778 0.6875 6.8125 C-1 8 -1 8 -4 8 C-4 7.34 -4 6.68 -4 6 C-3 5 -2 4 -1 3 C-0.67 2.01 -0.34 1.02 0 0 Z " fill="#FCC126" transform="translate(691,847)"/>
<path d="M0 0 C0 0.66 0 1.32 0 2 C-2.97 2 -5.94 2 -9 2 C-9 1.34 -9 0.68 -9 0 C-5.52176885 -1.15941038 -3.54104422 -0.70820884 0 0 Z " fill="#FDD458" transform="translate(615,766)"/>
<path d="M0 0 C0.99 0 1.98 0 3 0 C3 0.99 3 1.98 3 3 C1.35 3.33 -0.3 3.66 -2 4 C-2 4.66 -2 5.32 -2 6 C-2.99 6 -3.98 6 -5 6 C-5 5.34 -5 4.68 -5 4 C-3.35 3.34 -1.7 2.68 0 2 C0 1.34 0 0.68 0 0 Z " fill="#1F5891" transform="translate(671,441)"/>
<path d="M0 0 C2.475 0.99 2.475 0.99 5 2 C5 3.98 5 5.96 5 8 C4.34 8 3.68 8 3 8 C2.67 6.02 2.34 4.04 2 2 C1.34 2 0.68 2 0 2 C0 1.34 0 0.68 0 0 Z " fill="#FECE26" transform="translate(906,351)"/>
<path d="M0 0 C1.65 0 3.3 0 5 0 C5.33 0.66 5.66 1.32 6 2 C5.030625 2.12375 4.06125 2.2475 3.0625 2.375 C2.051875 2.58125 1.04125 2.7875 0 3 C-0.33 3.66 -0.66 4.32 -1 5 C-1 4.34 -1 3.68 -1 3 C-1.99 2.67 -2.98 2.34 -4 2 C-2.68 2 -1.36 2 0 2 C0 1.34 0 0.68 0 0 Z " fill="#4B87B6" transform="translate(400,195)"/>
<path d="M0 0 C0.33 0.99 0.66 1.98 1 3 C-1.3125 6.1875 -1.3125 6.1875 -4 9 C-4.66 9 -5.32 9 -6 9 C-6 6 -6 6 -4.125 3.8125 C-2 2 -2 2 0 2 C0 1.34 0 0.68 0 0 Z " fill="#1D67A4" transform="translate(362,132)"/>
<path d="M0 0 C2.31 0 4.62 0 7 0 C7 0.99 7 1.98 7 3 C5.02 3 3.04 3 1 3 C0.67 2.01 0.34 1.02 0 0 Z " fill="#FED655" transform="translate(412,896)"/>
<path d="M0 0 C1.98 0 3.96 0 6 0 C6 0.66 6 1.32 6 2 C2.52674819 3.1577506 -0.36067448 3.06866652 -4 3 C-2.68 2.67 -1.36 2.34 0 2 C0 1.34 0 0.68 0 0 Z " fill="#FDD64E" transform="translate(650,491)"/>
<path d="M0 0 C0 0.99 0 1.98 0 3 C-2.64 3 -5.28 3 -8 3 C-8 2.34 -8 1.68 -8 1 C-5.23735711 0.40267181 -2.83967231 0 0 0 Z " fill="#427AAE" transform="translate(358,475)"/>
<path d="M0 0 C0.99 0.33 1.98 0.66 3 1 C2.67 1.66 2.34 2.32 2 3 C1.34 3 0.68 3 0 3 C-0.33 3.99 -0.66 4.98 -1 6 C-1.66 6 -2.32 6 -3 6 C-3.33 6.66 -3.66 7.32 -4 8 C-3.50168276 4.31245243 -2.89932357 2.39509338 0 0 Z " fill="#FECB1C" transform="translate(703,457)"/>
<path d="M0 0 C0.33 0.99 0.66 1.98 1 3 C1.66 3 2.32 3 3 3 C3 3.66 3 4.32 3 5 C2.34 5 1.68 5 1 5 C1 6.32 1 7.64 1 9 C0.01 9 -0.98 9 -2 9 C-2 8.01 -2 7.02 -2 6 C-1.34 6 -0.68 6 0 6 C0 4.02 0 2.04 0 0 Z " fill="#FDD954" transform="translate(730,407)"/>
<path d="M0 0 C0.99 0 1.98 0 3 0 C3.33 2.31 3.66 4.62 4 7 C3.01 6.67 2.02 6.34 1 6 C0.67 4.02 0.34 2.04 0 0 Z " fill="#FED74E" transform="translate(905,345)"/>
<path d="M0 0 C0.66 0 1.32 0 2 0 C2 0.66 2 1.32 2 2 C2.66 2.33 3.32 2.66 4 3 C3.67 3.66 3.34 4.32 3 5 C1.68 5 0.36 5 -1 5 C-1 4.34 -1 3.68 -1 3 C-1.66 2.67 -2.32 2.34 -3 2 C-2.01 2 -1.02 2 0 2 C0 1.34 0 0.68 0 0 Z " fill="#4887BD" transform="translate(150,301)"/>
<path d="M0 0 C1.98 0 3.96 0 6 0 C6 0.66 6 1.32 6 2 C3.69 2.66 1.38 3.32 -1 4 C-1.66 3.34 -2.32 2.68 -3 2 C-2.01 2 -1.02 2 0 2 C0 1.34 0 0.68 0 0 Z " fill="#528ABB" transform="translate(356,82)"/>
<path d="M0 0 C0.99 0.33 1.98 0.66 3 1 C3 1.66 3 2.32 3 3 C3.99 3.33 4.98 3.66 6 4 C5.67 4.99 5.34 5.98 5 7 C2.5 5.1875 2.5 5.1875 0 3 C0 2.01 0 1.02 0 0 Z " fill="#EBECEB" transform="translate(38,924)"/>
<path d="M0 0 C0.66 0 1.32 0 2 0 C2 0.66 2 1.32 2 2 C2.99 2.33 3.98 2.66 5 3 C3.35 3 1.7 3 0 3 C0 3.66 0 4.32 0 5 C-0.99 5 -1.98 5 -3 5 C-3 4.01 -3 3.02 -3 2 C-2.01 2 -1.02 2 0 2 C0 1.34 0 0.68 0 0 Z " fill="#FDD767" transform="translate(625,888)"/>
<path d="M0 0 C0 0.99 0 1.98 0 3 C-2.31 3 -4.62 3 -7 3 C-7 2.34 -7 1.68 -7 1 C-4 0 -4 0 0 0 Z " fill="#FEC424" transform="translate(637,884)"/>
<path d="M0 0 C2 3 2 3 2 5 C2.66 5.33 3.32 5.66 4 6 C3.34 6 2.68 6 2 6 C1.67 6.66 1.34 7.32 1 8 C1 7.01 1 6.02 1 5 C0.01 5 -0.98 5 -2 5 C-2 4.01 -2 3.02 -2 2 C-1.34 2 -0.68 2 0 2 C0 1.34 0 0.68 0 0 Z " fill="#FED255" transform="translate(589,819)"/>
<path d="M0 0 C0.99 0 1.98 0 3 0 C3 0.99 3 1.98 3 3 C2.01 3 1.02 3 0 3 C0 3.66 0 4.32 0 5 C-0.99 5 -1.98 5 -3 5 C-3 4.01 -3 3.02 -3 2 C-2.01 2 -1.02 2 0 2 C0 1.34 0 0.68 0 0 Z " fill="#FDC423" transform="translate(868,660)"/>
<path d="M0 0 C3.3 0 6.6 0 10 0 C8.68 0.33 7.36 0.66 6 1 C6 1.66 6 2.32 6 3 C4.68 3 3.36 3 2 3 C2 2.34 2 1.68 2 1 C1.34 0.67 0.68 0.34 0 0 Z " fill="#5C8BB3" transform="translate(631,462)"/>
<path d="M0 0 C0.33 0 0.66 0 1 0 C1 5.94 1 11.88 1 18 C0.67 18 0.34 18 0 18 C0 12.06 0 6.12 0 0 Z " fill="#ECECED" transform="translate(0,357)"/>
<path d="M0 0 C0.66 0 1.32 0 2 0 C2 0.66 2 1.32 2 2 C4.97 2.495 4.97 2.495 8 3 C7.01 3.495 7.01 3.495 6 4 C5.67 4.66 5.34 5.32 5 6 C5 5.34 5 4.68 5 4 C3.35 4 1.7 4 0 4 C0 2.68 0 1.36 0 0 Z " fill="#FDDA58" transform="translate(859,288)"/>
<path d="M0 0 C0.99 0 1.98 0 3 0 C3 0.99 3 1.98 3 3 C2.34 3 1.68 3 1 3 C1 4.65 1 6.3 1 8 C0.67 7.01 0.34 6.02 0 5 C-0.66 5 -1.32 5 -2 5 C-2 4.34 -2 3.68 -2 3 C-1.34 3 -0.68 3 0 3 C0 2.01 0 1.02 0 0 Z " fill="#4E8ABB" transform="translate(352,145)"/>
<path d="M0 0 C0.33 0.66 0.66 1.32 1 2 C4.02934491 2.65772428 4.02934491 2.65772428 7 3 C7.33 3.99 7.66 4.98 8 6 C6.35 5.67 4.7 5.34 3 5 C3 4.34 3 3.68 3 3 C2.01 3 1.02 3 0 3 C0 2.01 0 1.02 0 0 Z " fill="#3975AB" transform="translate(658,89)"/>
<path d="M0 0 C3.3 0 6.6 0 10 0 C10.33 0.99 10.66 1.98 11 3 C9.68 3 8.36 3 7 3 C7 2.34 7 1.68 7 1 C4.69 1 2.38 1 0 1 C0 0.67 0 0.34 0 0 Z " fill="#4182B5" transform="translate(430,63)"/>
<path d="M0 0 C0.66 0 1.32 0 2 0 C2 0.99 2 1.98 2 3 C1.34 3 0.68 3 0 3 C-0.33 4.32 -0.66 5.64 -1 7 C-1.66 7 -2.32 7 -3 7 C-3 6.01 -3 5.02 -3 4 C-2.34 4 -1.68 4 -1 4 C-0.67 2.68 -0.34 1.36 0 0 Z " fill="#EBEBEB" transform="translate(993,909)"/>
<path d="M0 0 C1.65 0 3.3 0 5 0 C5 2 5 2 3.625 3.625 C2 5 2 5 0 5 C0 3.35 0 1.7 0 0 Z " fill="#FDD357" transform="translate(875,654)"/>
<path d="M0 0 C0.99 0 1.98 0 3 0 C3 1.65 3 3.3 3 5 C3.66 5.33 4.32 5.66 5 6 C4.34 6 3.68 6 3 6 C2.67 6.99 2.34 7.98 2 9 C2 7.02 2 5.04 2 3 C1.34 3 0.68 3 0 3 C0 2.01 0 1.02 0 0 Z " fill="#407FB1" transform="translate(94,585)"/>
<path d="M0 0 C0.99 0.33 1.98 0.66 3 1 C3 4.63 3 8.26 3 12 C2.67 12 2.34 12 2 12 C2 9.03 2 6.06 2 3 C1.34 3 0.68 3 0 3 C0 2.01 0 1.02 0 0 Z " fill="#FED968" transform="translate(928,528)"/>
<path d="M0 0 C0.99 0 1.98 0 3 0 C3 0.99 3 1.98 3 3 C2.34 3 1.68 3 1 3 C1 5.64 1 8.28 1 11 C0.67 11 0.34 11 0 11 C0 7.37 0 3.74 0 0 Z " fill="#5691BF" transform="translate(84,529)"/>
<path d="M0 0 C1.65 0 3.3 0 5 0 C5 2 5 2 3.625 3.625 C2 5 2 5 0 5 C0 3.35 0 1.7 0 0 Z " fill="#5286B2" transform="translate(297,516)"/>
<path d="M0 0 C0.33 0 0.66 0 1 0 C1 2.64 1 5.28 1 8 C1.66 8 2.32 8 3 8 C3 8.99 3 9.98 3 11 C2.01 11 1.02 11 0 11 C0 7.37 0 3.74 0 0 Z " fill="#FEE06A" transform="translate(736,376)"/>
<path d="M0 0 C1.98 0 3.96 0 6 0 C6 0.66 6 1.32 6 2 C6.66 2.33 7.32 2.66 8 3 C5.36 2.67 2.72 2.34 0 2 C0 1.34 0 0.68 0 0 Z " fill="#155E9E" transform="translate(644,85)"/>
<path d="M0 0 C0.99 0.33 1.98 0.66 3 1 C3 1.66 3 2.32 3 3 C3.66 3 4.32 3 5 3 C5 3.99 5 4.98 5 6 C3 6 3 6 1.375 4.6875 C0 3 0 3 0 0 Z " fill="#EAEBEB" transform="translate(44,931)"/>
<path d="M0 0 C0.33 0 0.66 0 1 0 C1 4.95 1 9.9 1 15 C0.67 15 0.34 15 0 15 C0 10.05 0 5.1 0 0 Z " fill="#ECEDED" transform="translate(0,341)"/>
<path d="M0 0 C1 3 1 3 0.0625 5.1875 C-0.4634375 6.0846875 -0.4634375 6.0846875 -1 7 C-1.66 7 -2.32 7 -3 7 C-3 6.01 -3 5.02 -3 4 C-2.34 4 -1.68 4 -1 4 C-0.67 2.68 -0.34 1.36 0 0 Z " fill="#EBECEB" transform="translate(999,899)"/>
<path d="M0 0 C0.66 0 1.32 0 2 0 C2 2.31 2 4.62 2 7 C1.34 7 0.68 7 0 7 C0 4.69 0 2.38 0 0 Z " fill="#EBECEC" transform="translate(1018,843)"/>
<path d="M0 0 C0.66 0 1.32 0 2 0 C2 2.31 2 4.62 2 7 C1.34 7 0.68 7 0 7 C0 4.69 0 2.38 0 0 Z " fill="#EDEDED" transform="translate(1,827)"/>
<path d="M0 0 C0.33 0 0.66 0 1 0 C1 4.62 1 9.24 1 14 C0.67 14 0.34 14 0 14 C0 9.38 0 4.76 0 0 Z " fill="#ECEDED" transform="translate(0,526)"/>
<path d="M0 0 C0.33 0 0.66 0 1 0 C1 4.62 1 9.24 1 14 C0.67 14 0.34 14 0 14 C0 9.38 0 4.76 0 0 Z " fill="#ECEDEE" transform="translate(1023,170)"/>
<path d="M0 0 C0.66 0 1.32 0 2 0 C2 0.99 2 1.98 2 3 C0.35 3.66 -1.3 4.32 -3 5 C-3 4.34 -3 3.68 -3 3 C-2.34 3 -1.68 3 -1 3 C-0.67 2.01 -0.34 1.02 0 0 Z " fill="#EAEBEB" transform="translate(981,927)"/>
<path d="M0 0 C0.66 0 1.32 0 2 0 C2 1.98 2 3.96 2 6 C1.34 6 0.68 6 0 6 C0 4.02 0 2.04 0 0 Z " fill="#ECEDEC" transform="translate(1012,865)"/>
<path d="M0 0 C0.66 0 1.32 0 2 0 C2 1.98 2 3.96 2 6 C1.34 6 0.68 6 0 6 C0 4.02 0 2.04 0 0 Z " fill="#ECEDED" transform="translate(1021,825)"/>
<path d="M0 0 C0.33 0 0.66 0 1 0 C1 3.96 1 7.92 1 12 C0.67 12 0.34 12 0 12 C0 8.04 0 4.08 0 0 Z " fill="#EDEDED" transform="translate(0,810)"/>
<path d="M0 0 C0.33 0 0.66 0 1 0 C1 3.63 1 7.26 1 11 C0.67 11 0.34 11 0 11 C0 7.37 0 3.74 0 0 Z " fill="#EDEDEE" transform="translate(0,479)"/>
<path d="M0 0 C0.33 0 0.66 0 1 0 C1 3.63 1 7.26 1 11 C0.67 11 0.34 11 0 11 C0 7.37 0 3.74 0 0 Z " fill="#EDEDED" transform="translate(0,223)"/>
<path d="M0 0 C0.66 0 1.32 0 2 0 C2 1.65 2 3.3 2 5 C1.34 5 0.68 5 0 5 C0 3.35 0 1.7 0 0 Z " fill="#ECEEED" transform="translate(7,857)"/>
<path d="M0 0 C0.66 0 1.32 0 2 0 C2 1.65 2 3.3 2 5 C1.34 5 0.68 5 0 5 C0 3.35 0 1.7 0 0 Z " fill="#EDEFEE" transform="translate(1021,157)"/>
<path d="M0 0 C0.66 0 1.32 0 2 0 C2 0.99 2 1.98 2 3 C1.34 3 0.68 3 0 3 C-0.33 3.66 -0.66 4.32 -1 5 C-0.67 3.35 -0.34 1.7 0 0 Z " fill="#E8E9EA" transform="translate(984,922)"/>
<path d="M0 0 C0.66 0 1.32 0 2 0 C2.33 1.65 2.66 3.3 3 5 C2.67 4.34 2.34 3.68 2 3 C1.34 3 0.68 3 0 3 C0 2.01 0 1.02 0 0 Z " fill="#EAEBEA" transform="translate(35,919)"/>
<path d="M0 0 C0.33 0.99 0.66 1.98 1 3 C0.67 3.66 0.34 4.32 0 5 C-0.66 5 -1.32 5 -2 5 C-2 4.01 -2 3.02 -2 2 C-1.34 2 -0.68 2 0 2 C0 1.34 0 0.68 0 0 Z " fill="#EAEAEA" transform="translate(989,916)"/>
<path d="M0 0 C0.66 0 1.32 0 2 0 C2.33 1.65 2.66 3.3 3 5 C2.67 4.34 2.34 3.68 2 3 C1.34 3 0.68 3 0 3 C0 2.01 0 1.02 0 0 Z " fill="#EAEAEB" transform="translate(29,910)"/>
<path d="M0 0 C0.33 0 0.66 0 1 0 C1 2.97 1 5.94 1 9 C0.67 9 0.34 9 0 9 C0 6.03 0 3.06 0 0 Z " fill="#ECEDEC" transform="translate(1020,834)"/>
<path d="M0 0 C0.99 0.495 0.99 0.495 2 1 C2 1.66 2 2.32 2 3 C2.66 3.33 3.32 3.66 4 4 C2.68 3.67 1.36 3.34 0 3 C0 2.01 0 1.02 0 0 Z " fill="#EBEBEB" transform="translate(49,937)"/>
<path d="M0 0 C0.66 0 1.32 0 2 0 C2 1.32 2 2.64 2 4 C1.34 4 0.68 4 0 4 C0 2.68 0 1.36 0 0 Z " fill="#EBEDEC" transform="translate(10,868)"/>
<path d="M0 0 C0.66 0 1.32 0 2 0 C2 1.32 2 2.64 2 4 C1.34 4 0.68 4 0 4 C0 2.68 0 1.36 0 0 Z " fill="#ECEDED" transform="translate(1015,856)"/>
<path d="M0 0 C0.66 0 1.32 0 2 0 C2 1.32 2 2.64 2 4 C1.34 4 0.68 4 0 4 C0 2.68 0 1.36 0 0 Z " fill="#EBEDED" transform="translate(4,846)"/>
<path d="M0 0 C0.33 0 0.66 0 1 0 C1 2.31 1 4.62 1 7 C0.67 7 0.34 7 0 7 C0 4.69 0 2.38 0 0 Z " fill="#ECEDED" transform="translate(0,491)"/>
<path d="M0 0 C0.33 0 0.66 0 1 0 C1 2.31 1 4.62 1 7 C0.67 7 0.34 7 0 7 C0 4.69 0 2.38 0 0 Z " fill="#EDEEEE" transform="translate(0,212)"/>
<path d="M0 0 C0.66 0 1.32 0 2 0 C2 0.99 2 1.98 2 3 C1.34 3 0.68 3 0 3 C0 2.01 0 1.02 0 0 Z " fill="#EBECEC" transform="translate(32,915)"/>
<path d="M0 0 C0.66 0.66 1.32 1.32 2 2 C1.67 2.99 1.34 3.98 1 5 C0.67 3.35 0.34 1.7 0 0 Z " fill="#EBEBEB" transform="translate(24,900)"/>
<path d="M0 0 C0.66 0 1.32 0 2 0 C2 0.99 2 1.98 2 3 C1.34 3 0.68 3 0 3 C0 2.01 0 1.02 0 0 Z " fill="#EBECEC" transform="translate(22,897)"/>
<path d="M0 0 C0.66 0 1.32 0 2 0 C2 0.99 2 1.98 2 3 C1.34 3 0.68 3 0 3 C0 2.01 0 1.02 0 0 Z " fill="#EBEBEC" transform="translate(1000,896)"/>
<path d="M0 0 C0.66 0 1.32 0 2 0 C2 0.99 2 1.98 2 3 C1.34 3 0.68 3 0 3 C0 2.01 0 1.02 0 0 Z " fill="#EAEBEC" transform="translate(19,891)"/>
<path d="M0 0 C0.66 0 1.32 0 2 0 C2 0.99 2 1.98 2 3 C1.34 3 0.68 3 0 3 C0 2.01 0 1.02 0 0 Z " fill="#ECEDEB" transform="translate(16,884)"/>
<path d="M0 0 C0.66 0 1.32 0 2 0 C2 0.99 2 1.98 2 3 C1.34 3 0.68 3 0 3 C0 2.01 0 1.02 0 0 Z " fill="#EAEBEB" transform="translate(1006,882)"/>
<path d="M0 0 C0.66 0 1.32 0 2 0 C2 0.99 2 1.98 2 3 C1.34 3 0.68 3 0 3 C0 2.01 0 1.02 0 0 Z " fill="#ECECEC" transform="translate(13,877)"/>
<path d="M0 0 C0.66 0 1.32 0 2 0 C2 0.99 2 1.98 2 3 C1.34 3 0.68 3 0 3 C0 2.01 0 1.02 0 0 Z " fill="#EBECEC" transform="translate(1009,875)"/>
<path d="M0 0 C0.33 0 0.66 0 1 0 C1 1.98 1 3.96 1 6 C0.67 6 0.34 6 0 6 C0 4.02 0 2.04 0 0 Z " fill="#ECECEC" transform="translate(3,837)"/>
<path d="M0 0 C0.33 0.99 0.66 1.98 1 3 C0.01 2.67 -0.98 2.34 -2 2 C-1.34 2 -0.68 2 0 2 C0 1.34 0 0.68 0 0 Z " fill="#E9E9EA" transform="translate(977,932)"/>
<path d="M0 0 C0.33 0 0.66 0 1 0 C1 1.65 1 3.3 1 5 C0.67 5 0.34 5 0 5 C0 3.35 0 1.7 0 0 Z " fill="#ECEDED" transform="translate(12,872)"/>
<path d="M0 0 C0.33 0 0.66 0 1 0 C1 1.65 1 3.3 1 5 C0.67 5 0.34 5 0 5 C0 3.35 0 1.7 0 0 Z " fill="#ECECED" transform="translate(9,863)"/>
<path d="M0 0 C0.33 0 0.66 0 1 0 C1 1.65 1 3.3 1 5 C0.67 5 0.34 5 0 5 C0 3.35 0 1.7 0 0 Z " fill="#ECECED" transform="translate(1014,860)"/>
<path d="M0 0 C0.33 0 0.66 0 1 0 C1 1.65 1 3.3 1 5 C0.67 5 0.34 5 0 5 C0 3.35 0 1.7 0 0 Z " fill="#EBECEC" transform="translate(6,852)"/>
<path d="M0 0 C0.33 0 0.66 0 1 0 C1 1.65 1 3.3 1 5 C0.67 5 0.34 5 0 5 C0 3.35 0 1.7 0 0 Z " fill="#ECECEC" transform="translate(1017,850)"/>
<path d="M0 0 C0.66 0 1.32 0 2 0 C2 0.66 2 1.32 2 2 C1.34 2 0.68 2 0 2 C0 1.34 0 0.68 0 0 Z " fill="#EAEBEC" transform="translate(26,905)"/>
<path d="M0 0 C1 4 1 4 1 4 Z " fill="#EBECEC" transform="translate(1008,878)"/>
<path d="M0 0 C1 4 1 4 1 4 Z " fill="#EBECEC" transform="translate(1011,871)"/>
<path d="" fill="#EBEBEC" transform="translate(0,0)"/>
<path d="" fill="#EBEBEB" transform="translate(0,0)"/>
<path d="" fill="#EBEBEC" transform="translate(0,0)"/>
<path d="" fill="#EBEBEB" transform="translate(0,0)"/>
<path d="" fill="#ECECED" transform="translate(0,0)"/>
<path d="" fill="#EDEFEE" transform="translate(0,0)"/>
<path d="M0 0 C2 1 2 1 2 1 Z " fill="#F0EFEE" transform="translate(428,1008)"/>
<path d="M0 0 C2 1 2 1 2 1 Z " fill="#EEF0EE" transform="translate(166,1005)"/>
<path d="" fill="#E8EAE9" transform="translate(0,0)"/>
<path d="M0 0 C2 1 2 1 2 1 Z " fill="#E6E8E8" transform="translate(962,949)"/>
<path d="" fill="#E7E8E9" transform="translate(0,0)"/>
<path d="M0 0 C2 1 2 1 2 1 Z " fill="#E9E9EA" transform="translate(965,946)"/>
<path d="" fill="#EAECED" transform="translate(0,0)"/>
<path d="" fill="#EEEFEE" transform="translate(0,0)"/>
<path d="" fill="#EEEFEE" transform="translate(0,0)"/>
<path d="" fill="#E8E9E8" transform="translate(0,0)"/>
<path d="" fill="#E9EAEB" transform="translate(0,0)"/>
<path d="" fill="#EDEEED" transform="translate(0,0)"/>
<path d="" fill="#EFEFED" transform="translate(0,0)"/>
</svg>
